<?xml version="1.0" encoding="UTF-8" standalone="no"?>
<!DOCTYPE svg PUBLIC "-//W3C//DTD SVG 1.1//EN"
 "http://www.w3.org/Graphics/SVG/1.1/DTD/svg11.dtd">
<!-- Generated by graphviz version 12.2.1 (20241206.2353)
 -->
<!-- Title: AR6_WGII Pages: 1 -->
<svg width="3058pt" height="375pt"
 viewBox="36.00 36.00 3022.40 339.20" xmlns="http://www.w3.org/2000/svg" xmlns:xlink="http://www.w3.org/1999/xlink">
<g id="graph0" class="graph" transform="scale(1 1) rotate(0) translate(40 335.2)">
<title>AR6_WGII</title>
<polygon fill="white" stroke="none" points="-4,4 -4,-299.2 2982.4,-299.2 2982.4,4 -4,4"/>
<!-- AR6 -->
<g id="node1" class="node">
<title>AR6</title>
<g id="a_node1"><a xlink:href="https://www.ipcc.ch/report/ar6/wg2/" xlink:title="AR6 WGII">
<ellipse fill="lightblue" stroke="lightblue" cx="1001.2" cy="-270" rx="25.2" ry="25.2"/>
<text text-anchor="middle" x="1001.2" y="-264.95" font-family="Times New Roman,serif" font-size="14.00">AR6 WGII</text>
</a>
</g>
</g>
<!-- SPM -->
<g id="node2" class="node">
<title>SPM</title>
<g id="a_node2"><a xlink:href="https://www.ipcc.ch/report/ar6/wg2/chapter/summary-for-policymakers/" xlink:title="Summary for Policymakers">
<ellipse fill="lightgrey" stroke="lightgrey" cx="757.2" cy="-147.6" rx="25.2" ry="25.2"/>
<text text-anchor="middle" x="757.2" y="-142.55" font-family="Times New Roman,serif" font-size="14.00">Summary for Policymakers</text>
</a>
</g>
</g>
<!-- AR6&#45;&gt;SPM -->
<g id="edge26" class="edge">
<title>AR6:s&#45;&gt;SPM:n</title>
<path fill="none" stroke="black" d="M1001.2,-244.8C1001.2,-244.8 815.22,-189.92 768,-175.99"/>
<polygon fill="black" stroke="black" points="769.23,-172.7 758.65,-173.23 767.25,-179.42 769.23,-172.7"/>
</g>
<!-- TS -->
<g id="node3" class="node">
<title>TS</title>
<g id="a_node3"><a xlink:href="https://www.ipcc.ch/report/ar6/wg2/chapter/technical-summary/" xlink:title="Technical Summary">
<ellipse fill="lightgrey" stroke="lightgrey" cx="879.2" cy="-147.6" rx="25.2" ry="25.2"/>
<text text-anchor="middle" x="879.2" y="-142.55" font-family="Times New Roman,serif" font-size="14.00">Technical Summary</text>
</a>
</g>
</g>
<!-- AR6&#45;&gt;TS -->
<g id="edge27" class="edge">
<title>AR6:s&#45;&gt;TS:n</title>
<path fill="none" stroke="black" d="M1001.2,-244.8C1001.2,-244.8 917.53,-195.42 888.77,-178.45"/>
<polygon fill="black" stroke="black" points="890.89,-175.64 880.5,-173.57 887.34,-181.67 890.89,-175.64"/>
</g>
<!-- FR -->
<g id="node4" class="node">
<title>FR</title>
<g id="a_node4"><a xlink:href="https://www.ipcc.ch/report/ar6/wg2/" xlink:title="Full Report">
<ellipse fill="lightgrey" stroke="lightgrey" cx="1001.2" cy="-147.6" rx="25.2" ry="25.2"/>
<text text-anchor="middle" x="1001.2" y="-142.55" font-family="Times New Roman,serif" font-size="14.00">Full Report</text>
</a>
</g>
</g>
<!-- AR6&#45;&gt;FR -->
<g id="edge28" class="edge">
<title>AR6:s&#45;&gt;FR:n</title>
<path fill="none" stroke="black" d="M1001.2,-244.8C1001.2,-244.8 1001.2,-204.3 1001.2,-184.05"/>
<polygon fill="black" stroke="black" points="1004.7,-184.31 1001.2,-174.31 997.7,-184.31 1004.7,-184.31"/>
</g>
<!-- CP -->
<g id="node5" class="node">
<title>CP</title>
<g id="a_node5"><a xlink:href="https://www.ipcc.ch/report/ar6/wg2/" xlink:title="Chapters">
<ellipse fill="lightyellow" stroke="lightyellow" cx="1123.2" cy="-147.6" rx="25.2" ry="25.2"/>
<text text-anchor="middle" x="1123.2" y="-142.55" font-family="Times New Roman,serif" font-size="14.00">Chapters</text>
</a>
</g>
</g>
<!-- AR6&#45;&gt;CP -->
<g id="edge29" class="edge">
<title>AR6:s&#45;&gt;CP:n</title>
<path fill="none" stroke="black" d="M1001.2,-244.8C1001.2,-244.8 1084.87,-195.42 1113.63,-178.45"/>
<polygon fill="black" stroke="black" points="1115.06,-181.67 1121.9,-173.57 1111.51,-175.64 1115.06,-181.67"/>
</g>
<!-- CCP -->
<g id="node6" class="node">
<title>CCP</title>
<g id="a_node6"><a xlink:href="https://www.ipcc.ch/report/ar6/wg2/" xlink:title="Cross Chapters">
<ellipse fill="lightgreen" stroke="lightgreen" cx="2526.2" cy="-147.6" rx="25.2" ry="25.2"/>
<text text-anchor="middle" x="2526.2" y="-142.55" font-family="Times New Roman,serif" font-size="14.00">Cross Chapters</text>
</a>
</g>
</g>
<!-- AR6&#45;&gt;CCP -->
<g id="edge30" class="edge">
<title>AR6:s&#45;&gt;CCP:n</title>
<path fill="none" stroke="black" d="M1001.2,-244.8C1001.2,-244.8 2375.25,-179.93 2514.8,-173.34"/>
<polygon fill="black" stroke="black" points="2514.86,-176.84 2524.69,-172.87 2514.53,-169.85 2514.86,-176.84"/>
</g>
<!-- CP1 -->
<g id="node7" class="node">
<title>CP1</title>
<g id="a_node7"><a xlink:href="https://www.ipcc.ch/report/ar6/wg2/chapter/chapter-1/" xlink:title="Chapter 1">
<ellipse fill="lightcoral" stroke="lightcoral" cx="25.2" cy="-25.2" rx="25.2" ry="25.2"/>
<text text-anchor="middle" x="25.2" y="-20.15" font-family="Times New Roman,serif" font-size="14.00">Chapter 1</text>
</a>
</g>
</g>
<!-- CP&#45;&gt;CP1 -->
<g id="edge1" class="edge">
<title>CP:s&#45;&gt;CP1:n</title>
<path fill="none" stroke="black" d="M1123.2,-122.4C1123.2,-122.4 152.12,-58.72 36.42,-51.14"/>
<polygon fill="black" stroke="black" points="36.92,-47.66 26.71,-50.5 36.46,-54.65 36.92,-47.66"/>
</g>
<!-- CP2 -->
<g id="node8" class="node">
<title>CP2</title>
<g id="a_node8"><a xlink:href="https://www.ipcc.ch/report/ar6/wg2/chapter/chapter-2/" xlink:title="Chapter 2">
<ellipse fill="lightcoral" stroke="lightcoral" cx="147.2" cy="-25.2" rx="25.2" ry="25.2"/>
<text text-anchor="middle" x="147.2" y="-20.15" font-family="Times New Roman,serif" font-size="14.00">Chapter 2</text>
</a>
</g>
</g>
<!-- CP&#45;&gt;CP2 -->
<g id="edge2" class="edge">
<title>CP:s&#45;&gt;CP2:n</title>
<path fill="none" stroke="black" d="M1123.2,-122.4C1123.2,-122.4 267.17,-59.25 158.5,-51.23"/>
<polygon fill="black" stroke="black" points="158.94,-47.76 148.71,-50.51 158.42,-54.74 158.94,-47.76"/>
</g>
<!-- CP3 -->
<g id="node9" class="node">
<title>CP3</title>
<g id="a_node9"><a xlink:href="https://www.ipcc.ch/report/ar6/wg2/chapter/chapter-3/" xlink:title="Chapter 3">
<ellipse fill="lightcoral" stroke="lightcoral" cx="269.2" cy="-25.2" rx="25.2" ry="25.2"/>
<text text-anchor="middle" x="269.2" y="-20.15" font-family="Times New Roman,serif" font-size="14.00">Chapter 3</text>
</a>
</g>
</g>
<!-- CP&#45;&gt;CP3 -->
<g id="edge3" class="edge">
<title>CP:s&#45;&gt;CP3:n</title>
<path fill="none" stroke="black" d="M1123.2,-122.4C1123.2,-122.4 381.97,-59.91 280.63,-51.36"/>
<polygon fill="black" stroke="black" points="280.97,-47.88 270.71,-50.53 280.38,-54.85 280.97,-47.88"/>
</g>
<!-- CP4 -->
<g id="node10" class="node">
<title>CP4</title>
<g id="a_node10"><a xlink:href="https://www.ipcc.ch/report/ar6/wg2/chapter/chapter-4/" xlink:title="Chapter 4">
<ellipse fill="lightcoral" stroke="lightcoral" cx="391.2" cy="-25.2" rx="25.2" ry="25.2"/>
<text text-anchor="middle" x="391.2" y="-20.15" font-family="Times New Roman,serif" font-size="14.00">Chapter 4</text>
</a>
</g>
</g>
<!-- CP&#45;&gt;CP4 -->
<g id="edge4" class="edge">
<title>CP:s&#45;&gt;CP4:n</title>
<path fill="none" stroke="black" d="M1123.2,-122.4C1123.2,-122.4 494.5,-60.56 402.41,-51.5"/>
<polygon fill="black" stroke="black" points="403,-48.04 392.71,-50.55 402.32,-55.01 403,-48.04"/>
</g>
<!-- CP5 -->
<g id="node11" class="node">
<title>CP5</title>
<g id="a_node11"><a xlink:href="https://www.ipcc.ch/report/ar6/wg2/chapter/chapter-5/" xlink:title="Chapter 5">
<ellipse fill="lightcoral" stroke="lightcoral" cx="513.2" cy="-25.2" rx="25.2" ry="25.2"/>
<text text-anchor="middle" x="513.2" y="-20.15" font-family="Times New Roman,serif" font-size="14.00">Chapter 5</text>
</a>
</g>
</g>
<!-- CP&#45;&gt;CP5 -->
<g id="edge5" class="edge">
<title>CP:s&#45;&gt;CP5:n</title>
<path fill="none" stroke="black" d="M1123.2,-122.4C1123.2,-122.4 608.08,-61.6 524.57,-51.74"/>
<polygon fill="black" stroke="black" points="525.04,-48.27 514.7,-50.58 524.22,-55.23 525.04,-48.27"/>
</g>
<!-- CP6 -->
<g id="node12" class="node">
<title>CP6</title>
<g id="a_node12"><a xlink:href="https://www.ipcc.ch/report/ar6/wg2/chapter/chapter-6/" xlink:title="Chapter 6">
<ellipse fill="lightcoral" stroke="lightcoral" cx="635.2" cy="-25.2" rx="25.2" ry="25.2"/>
<text text-anchor="middle" x="635.2" y="-20.15" font-family="Times New Roman,serif" font-size="14.00">Chapter 6</text>
</a>
</g>
</g>
<!-- CP&#45;&gt;CP6 -->
<g id="edge6" class="edge">
<title>CP:s&#45;&gt;CP6:n</title>
<path fill="none" stroke="black" d="M1123.2,-122.4C1123.2,-122.4 718.95,-62.76 646.31,-52.04"/>
<polygon fill="black" stroke="black" points="647.1,-48.62 636.7,-50.62 646.08,-55.54 647.1,-48.62"/>
</g>
<!-- CP7 -->
<g id="node13" class="node">
<title>CP7</title>
<g id="a_node13"><a xlink:href="https://www.ipcc.ch/report/ar6/wg2/chapter/chapter-7/" xlink:title="Chapter 7">
<ellipse fill="lightcoral" stroke="lightcoral" cx="757.2" cy="-25.2" rx="25.2" ry="25.2"/>
<text text-anchor="middle" x="757.2" y="-20.15" font-family="Times New Roman,serif" font-size="14.00">Chapter 7</text>
</a>
</g>
</g>
<!-- CP&#45;&gt;CP7 -->
<g id="edge7" class="edge">
<title>CP:s&#45;&gt;CP7:n</title>
<path fill="none" stroke="black" d="M1123.2,-122.4C1123.2,-122.4 829.05,-64.53 768.15,-52.55"/>
<polygon fill="black" stroke="black" points="769.17,-49.19 758.69,-50.69 767.82,-56.06 769.17,-49.19"/>
</g>
<!-- CP8 -->
<g id="node14" class="node">
<title>CP8</title>
<g id="a_node14"><a xlink:href="https://www.ipcc.ch/report/ar6/wg2/chapter/chapter-8/" xlink:title="Chapter 8">
<ellipse fill="lightcoral" stroke="lightcoral" cx="879.2" cy="-25.2" rx="25.2" ry="25.2"/>
<text text-anchor="middle" x="879.2" y="-20.15" font-family="Times New Roman,serif" font-size="14.00">Chapter 8</text>
</a>
</g>
</g>
<!-- CP&#45;&gt;CP8 -->
<g id="edge8" class="edge">
<title>CP:s&#45;&gt;CP8:n</title>
<path fill="none" stroke="black" d="M1123.2,-122.4C1123.2,-122.4 937.22,-67.52 890,-53.59"/>
<polygon fill="black" stroke="black" points="891.23,-50.3 880.65,-50.83 889.25,-57.02 891.23,-50.3"/>
</g>
<!-- CP9 -->
<g id="node15" class="node">
<title>CP9</title>
<g id="a_node15"><a xlink:href="https://www.ipcc.ch/report/ar6/wg2/chapter/chapter-9/" xlink:title="Chapter 9">
<ellipse fill="lightcoral" stroke="lightcoral" cx="1001.2" cy="-25.2" rx="25.2" ry="25.2"/>
<text text-anchor="middle" x="1001.2" y="-20.15" font-family="Times New Roman,serif" font-size="14.00">Chapter 9</text>
</a>
</g>
</g>
<!-- CP&#45;&gt;CP9 -->
<g id="edge9" class="edge">
<title>CP:s&#45;&gt;CP9:n</title>
<path fill="none" stroke="black" d="M1123.2,-122.4C1123.2,-122.4 1039.53,-73.02 1010.77,-56.05"/>
<polygon fill="black" stroke="black" points="1012.89,-53.24 1002.5,-51.17 1009.34,-59.27 1012.89,-53.24"/>
</g>
<!-- CP10 -->
<g id="node16" class="node">
<title>CP10</title>
<g id="a_node16"><a xlink:href="https://www.ipcc.ch/report/ar6/wg2/chapter/chapter-10/" xlink:title="Chapter 10">
<ellipse fill="lightcoral" stroke="lightcoral" cx="1123.2" cy="-25.2" rx="25.2" ry="25.2"/>
<text text-anchor="middle" x="1123.2" y="-20.15" font-family="Times New Roman,serif" font-size="14.00">Chapter 10</text>
</a>
</g>
</g>
<!-- CP&#45;&gt;CP10 -->
<g id="edge10" class="edge">
<title>CP:s&#45;&gt;CP10:n</title>
<path fill="none" stroke="black" d="M1123.2,-122.4C1123.2,-122.4 1123.2,-81.9 1123.2,-61.65"/>
<polygon fill="black" stroke="black" points="1126.7,-61.91 1123.2,-51.91 1119.7,-61.91 1126.7,-61.91"/>
</g>
<!-- CP11 -->
<g id="node17" class="node">
<title>CP11</title>
<g id="a_node17"><a xlink:href="https://www.ipcc.ch/report/ar6/wg2/chapter/chapter-11/" xlink:title="Chapter 11">
<ellipse fill="lightcoral" stroke="lightcoral" cx="1245.2" cy="-25.2" rx="25.2" ry="25.2"/>
<text text-anchor="middle" x="1245.2" y="-20.15" font-family="Times New Roman,serif" font-size="14.00">Chapter 11</text>
</a>
</g>
</g>
<!-- CP&#45;&gt;CP11 -->
<g id="edge11" class="edge">
<title>CP:s&#45;&gt;CP11:n</title>
<path fill="none" stroke="black" d="M1123.2,-122.4C1123.2,-122.4 1206.87,-73.02 1235.63,-56.05"/>
<polygon fill="black" stroke="black" points="1237.06,-59.27 1243.9,-51.17 1233.51,-53.24 1237.06,-59.27"/>
</g>
<!-- CP12 -->
<g id="node18" class="node">
<title>CP12</title>
<g id="a_node18"><a xlink:href="https://www.ipcc.ch/report/ar6/wg2/chapter/chapter-12/" xlink:title="Chapter 12">
<ellipse fill="lightcoral" stroke="lightcoral" cx="1367.2" cy="-25.2" rx="25.2" ry="25.2"/>
<text text-anchor="middle" x="1367.2" y="-20.15" font-family="Times New Roman,serif" font-size="14.00">Chapter 12</text>
</a>
</g>
</g>
<!-- CP&#45;&gt;CP12 -->
<g id="edge12" class="edge">
<title>CP:s&#45;&gt;CP12:n</title>
<path fill="none" stroke="black" d="M1123.2,-122.4C1123.2,-122.4 1309.18,-67.52 1356.4,-53.59"/>
<polygon fill="black" stroke="black" points="1357.15,-57.02 1365.75,-50.83 1355.17,-50.3 1357.15,-57.02"/>
</g>
<!-- CP13 -->
<g id="node19" class="node">
<title>CP13</title>
<g id="a_node19"><a xlink:href="https://www.ipcc.ch/report/ar6/wg2/chapter/chapter-13/" xlink:title="Chapter 13">
<ellipse fill="lightcoral" stroke="lightcoral" cx="1489.2" cy="-25.2" rx="25.2" ry="25.2"/>
<text text-anchor="middle" x="1489.2" y="-20.15" font-family="Times New Roman,serif" font-size="14.00">Chapter 13</text>
</a>
</g>
</g>
<!-- CP&#45;&gt;CP13 -->
<g id="edge13" class="edge">
<title>CP:s&#45;&gt;CP13:n</title>
<path fill="none" stroke="black" d="M1123.2,-122.4C1123.2,-122.4 1417.35,-64.53 1478.25,-52.55"/>
<polygon fill="black" stroke="black" points="1478.58,-56.06 1487.71,-50.69 1477.23,-49.19 1478.58,-56.06"/>
</g>
<!-- CP14 -->
<g id="node20" class="node">
<title>CP14</title>
<g id="a_node20"><a xlink:href="https://www.ipcc.ch/report/ar6/wg2/chapter/chapter-14/" xlink:title="Chapter 14">
<ellipse fill="lightcoral" stroke="lightcoral" cx="1611.2" cy="-25.2" rx="25.2" ry="25.2"/>
<text text-anchor="middle" x="1611.2" y="-20.15" font-family="Times New Roman,serif" font-size="14.00">Chapter 14</text>
</a>
</g>
</g>
<!-- CP&#45;&gt;CP14 -->
<g id="edge14" class="edge">
<title>CP:s&#45;&gt;CP14:n</title>
<path fill="none" stroke="black" d="M1123.2,-122.4C1123.2,-122.4 1527.45,-62.76 1600.09,-52.04"/>
<polygon fill="black" stroke="black" points="1600.32,-55.54 1609.7,-50.62 1599.3,-48.62 1600.32,-55.54"/>
</g>
<!-- CP15 -->
<g id="node21" class="node">
<title>CP15</title>
<g id="a_node21"><a xlink:href="https://www.ipcc.ch/report/ar6/wg2/chapter/chapter-15/" xlink:title="Chapter 15">
<ellipse fill="lightcoral" stroke="lightcoral" cx="1733.2" cy="-25.2" rx="25.2" ry="25.2"/>
<text text-anchor="middle" x="1733.2" y="-20.15" font-family="Times New Roman,serif" font-size="14.00">Chapter 15</text>
</a>
</g>
</g>
<!-- CP&#45;&gt;CP15 -->
<g id="edge15" class="edge">
<title>CP:s&#45;&gt;CP15:n</title>
<path fill="none" stroke="black" d="M1123.2,-122.4C1123.2,-122.4 1638.32,-61.6 1721.83,-51.74"/>
<polygon fill="black" stroke="black" points="1722.18,-55.23 1731.7,-50.58 1721.36,-48.27 1722.18,-55.23"/>
</g>
<!-- CP16 -->
<g id="node22" class="node">
<title>CP16</title>
<g id="a_node22"><a xlink:href="https://www.ipcc.ch/report/ar6/wg2/chapter/chapter-16/" xlink:title="Chapter 16">
<ellipse fill="lightcoral" stroke="lightcoral" cx="1855.2" cy="-25.2" rx="25.2" ry="25.2"/>
<text text-anchor="middle" x="1855.2" y="-20.15" font-family="Times New Roman,serif" font-size="14.00">Chapter 16</text>
</a>
</g>
</g>
<!-- CP&#45;&gt;CP16 -->
<g id="edge16" class="edge">
<title>CP:s&#45;&gt;CP16:n</title>
<path fill="none" stroke="black" d="M1123.2,-122.4C1123.2,-122.4 1751.9,-60.56 1843.99,-51.5"/>
<polygon fill="black" stroke="black" points="1844.08,-55.01 1853.69,-50.55 1843.4,-48.04 1844.08,-55.01"/>
</g>
<!-- CP17 -->
<g id="node23" class="node">
<title>CP17</title>
<g id="a_node23"><a xlink:href="https://www.ipcc.ch/report/ar6/wg2/chapter/chapter-17/" xlink:title="Chapter 17">
<ellipse fill="lightcoral" stroke="lightcoral" cx="1977.2" cy="-25.2" rx="25.2" ry="25.2"/>
<text text-anchor="middle" x="1977.2" y="-20.15" font-family="Times New Roman,serif" font-size="14.00">Chapter 17</text>
</a>
</g>
</g>
<!-- CP&#45;&gt;CP17 -->
<g id="edge17" class="edge">
<title>CP:s&#45;&gt;CP17:n</title>
<path fill="none" stroke="black" d="M1123.2,-122.4C1123.2,-122.4 1864.43,-59.91 1965.77,-51.36"/>
<polygon fill="black" stroke="black" points="1966.02,-54.85 1975.69,-50.53 1965.43,-47.88 1966.02,-54.85"/>
</g>
<!-- CP18 -->
<g id="node24" class="node">
<title>CP18</title>
<g id="a_node24"><a xlink:href="https://www.ipcc.ch/report/ar6/wg2/chapter/chapter-18/" xlink:title="Chapter 18">
<ellipse fill="lightcoral" stroke="lightcoral" cx="2099.2" cy="-25.2" rx="25.2" ry="25.2"/>
<text text-anchor="middle" x="2099.2" y="-20.15" font-family="Times New Roman,serif" font-size="14.00">Chapter 18</text>
</a>
</g>
</g>
<!-- CP&#45;&gt;CP18 -->
<g id="edge18" class="edge">
<title>CP:s&#45;&gt;CP18:n</title>
<path fill="none" stroke="black" d="M1123.2,-122.4C1123.2,-122.4 1979.23,-59.25 2087.9,-51.23"/>
<polygon fill="black" stroke="black" points="2087.98,-54.74 2097.69,-50.51 2087.46,-47.76 2087.98,-54.74"/>
</g>
<!-- CPP1 -->
<g id="node25" class="node">
<title>CPP1</title>
<g id="a_node25"><a xlink:href="https://www.ipcc.ch/report/ar6/wg2/chapter/ccp1/" xlink:title="Cross&#45;Chapter 1">
<ellipse fill="lightseagreen" stroke="lightseagreen" cx="2221.2" cy="-25.2" rx="25.2" ry="25.2"/>
<text text-anchor="middle" x="2221.2" y="-20.15" font-family="Times New Roman,serif" font-size="14.00">Cross&#45;Chapter 1</text>
</a>
</g>
</g>
<!-- CCP&#45;&gt;CPP1 -->
<g id="edge19" class="edge">
<title>CCP:s&#45;&gt;CPP1:n</title>
<path fill="none" stroke="black" d="M2526.2,-122.4C2526.2,-122.4 2286.39,-65.79 2232.06,-52.96"/>
<polygon fill="black" stroke="black" points="2233.21,-49.64 2222.67,-50.75 2231.6,-56.45 2233.21,-49.64"/>
</g>
<!-- CPP2 -->
<g id="node26" class="node">
<title>CPP2</title>
<g id="a_node26"><a xlink:href="https://www.ipcc.ch/report/ar6/wg2/chapter/ccp2/" xlink:title="Cross&#45;Chapter 2">
<ellipse fill="lightseagreen" stroke="lightseagreen" cx="2343.2" cy="-25.2" rx="25.2" ry="25.2"/>
<text text-anchor="middle" x="2343.2" y="-20.15" font-family="Times New Roman,serif" font-size="14.00">Cross&#45;Chapter 2</text>
</a>
</g>
</g>
<!-- CCP&#45;&gt;CPP2 -->
<g id="edge20" class="edge">
<title>CCP:s&#45;&gt;CPP2:n</title>
<path fill="none" stroke="black" d="M2526.2,-122.4C2526.2,-122.4 2392.89,-69.95 2353.83,-54.58"/>
<polygon fill="black" stroke="black" points="2355.2,-51.36 2344.61,-50.95 2352.63,-57.87 2355.2,-51.36"/>
</g>
<!-- CPP3 -->
<g id="node27" class="node">
<title>CPP3</title>
<g id="a_node27"><a xlink:href="https://www.ipcc.ch/report/ar6/wg2/chapter/ccp3/" xlink:title="Cross&#45;Chapter 3">
<ellipse fill="lightseagreen" stroke="lightseagreen" cx="2465.2" cy="-25.2" rx="25.2" ry="25.2"/>
<text text-anchor="middle" x="2465.2" y="-20.15" font-family="Times New Roman,serif" font-size="14.00">Cross&#45;Chapter 3</text>
</a>
</g>
</g>
<!-- CCP&#45;&gt;CPP3 -->
<g id="edge21" class="edge">
<title>CCP:s&#45;&gt;CPP3:n</title>
<path fill="none" stroke="black" d="M2526.2,-122.4C2526.2,-122.4 2488.6,-78.01 2472.44,-58.94"/>
<polygon fill="black" stroke="black" points="2475.31,-56.92 2466.18,-51.55 2469.97,-61.45 2475.31,-56.92"/>
</g>
<!-- CPP4 -->
<g id="node28" class="node">
<title>CPP4</title>
<g id="a_node28"><a xlink:href="https://www.ipcc.ch/report/ar6/wg2/chapter/ccp4/" xlink:title="Cross&#45;Chapter 4">
<ellipse fill="lightseagreen" stroke="lightseagreen" cx="2587.2" cy="-25.2" rx="25.2" ry="25.2"/>
<text text-anchor="middle" x="2587.2" y="-20.15" font-family="Times New Roman,serif" font-size="14.00">Cross&#45;Chapter 4</text>
</a>
</g>
</g>
<!-- CCP&#45;&gt;CPP4 -->
<g id="edge22" class="edge">
<title>CCP:s&#45;&gt;CPP4:n</title>
<path fill="none" stroke="black" d="M2526.2,-122.4C2526.2,-122.4 2563.8,-78.01 2579.96,-58.94"/>
<polygon fill="black" stroke="black" points="2582.43,-61.45 2586.22,-51.55 2577.09,-56.92 2582.43,-61.45"/>
</g>
<!-- CPP5 -->
<g id="node29" class="node">
<title>CPP5</title>
<g id="a_node29"><a xlink:href="https://www.ipcc.ch/report/ar6/wg2/chapter/ccp5/" xlink:title="Cross&#45;Chapter 5">
<ellipse fill="lightseagreen" stroke="lightseagreen" cx="2709.2" cy="-25.2" rx="25.2" ry="25.2"/>
<text text-anchor="middle" x="2709.2" y="-20.15" font-family="Times New Roman,serif" font-size="14.00">Cross&#45;Chapter 5</text>
</a>
</g>
</g>
<!-- CCP&#45;&gt;CPP5 -->
<g id="edge23" class="edge">
<title>CCP:s&#45;&gt;CPP5:n</title>
<path fill="none" stroke="black" d="M2526.2,-122.4C2526.2,-122.4 2659.51,-69.95 2698.57,-54.58"/>
<polygon fill="black" stroke="black" points="2699.77,-57.87 2707.79,-50.95 2697.2,-51.36 2699.77,-57.87"/>
</g>
<!-- CPP6 -->
<g id="node30" class="node">
<title>CPP6</title>
<g id="a_node30"><a xlink:href="https://www.ipcc.ch/report/ar6/wg2/chapter/ccp6/" xlink:title="Cross&#45;Chapter 6">
<ellipse fill="lightseagreen" stroke="lightseagreen" cx="2831.2" cy="-25.2" rx="25.2" ry="25.2"/>
<text text-anchor="middle" x="2831.2" y="-20.15" font-family="Times New Roman,serif" font-size="14.00">Cross&#45;Chapter 6</text>
</a>
</g>
</g>
<!-- CCP&#45;&gt;CPP6 -->
<g id="edge24" class="edge">
<title>CCP:s&#45;&gt;CPP6:n</title>
<path fill="none" stroke="black" d="M2526.2,-122.4C2526.2,-122.4 2766.01,-65.79 2820.34,-52.96"/>
<polygon fill="black" stroke="black" points="2820.8,-56.45 2829.73,-50.75 2819.19,-49.64 2820.8,-56.45"/>
</g>
<!-- CPP7 -->
<g id="node31" class="node">
<title>CPP7</title>
<g id="a_node31"><a xlink:href="https://www.ipcc.ch/report/ar6/wg2/chapter/ccp7/" xlink:title="Cross&#45;Chapter 7">
<ellipse fill="lightseagreen" stroke="lightseagreen" cx="2953.2" cy="-25.2" rx="25.2" ry="25.2"/>
<text text-anchor="middle" x="2953.2" y="-20.15" font-family="Times New Roman,serif" font-size="14.00">Cross&#45;Chapter 7</text>
</a>
</g>
</g>
<!-- CCP&#45;&gt;CPP7 -->
<g id="edge25" class="edge">
<title>CCP:s&#45;&gt;CPP7:n</title>
<path fill="none" stroke="black" d="M2526.2,-122.4C2526.2,-122.4 2875.38,-63.52 2942.22,-52.25"/>
<polygon fill="black" stroke="black" points="2942.43,-55.77 2951.71,-50.65 2941.26,-48.86 2942.43,-55.77"/>
</g>
</g>
</svg>
