<?xml version="1.0" encoding="UTF-8" standalone="no"?>
<!DOCTYPE svg PUBLIC "-//W3C//DTD SVG 1.1//EN"
 "http://www.w3.org/Graphics/SVG/1.1/DTD/svg11.dtd">
<!-- Generated by graphviz version 12.2.1 (20241206.2353)
 -->
<!-- Title: AR6_WGII Pages: 1 -->
<svg width="4599pt" height="700pt"
 viewBox="36.00 36.00 4562.57 663.98" xmlns="http://www.w3.org/2000/svg" xmlns:xlink="http://www.w3.org/1999/xlink">
<g id="graph0" class="graph" transform="scale(1 1) rotate(0) translate(40 659.98)">
<title>AR6_WGII</title>
<polygon fill="white" stroke="none" points="-4,4 -4,-623.98 4522.57,-623.98 4522.57,4 -4,4"/>
<!-- AR6 -->
<g id="node1" class="node">
<title>AR6</title>
<g id="a_node1"><a xlink:href="https://www.ipcc.ch/report/ar6/wg2/" xlink:title="AR6 WGII">
<ellipse fill="lightblue" stroke="lightblue" cx="1385.26" cy="-567.61" rx="52.38" ry="52.38"/>
<text text-anchor="middle" x="1385.26" y="-562.56" font-family="Times New Roman,serif" font-size="14.00">AR6 WGII</text>
</a>
</g>
</g>
<!-- SPM -->
<g id="node2" class="node">
<title>SPM</title>
<g id="a_node2"><a xlink:href="https://www.ipcc.ch/report/ar6/wg2/chapter/summary-for-policymakers/" xlink:title="Summary for Policymakers">
<ellipse fill="lightgrey" stroke="lightgrey" cx="901.26" cy="-328.93" rx="114.3" ry="114.3"/>
<text text-anchor="middle" x="901.26" y="-323.88" font-family="Times New Roman,serif" font-size="14.00">Summary for Policymakers</text>
</a>
</g>
</g>
<!-- AR6&#45;&gt;SPM -->
<g id="edge26" class="edge">
<title>AR6&#45;&gt;SPM</title>
<path fill="none" stroke="black" d="M1334.61,-552.96C1267.4,-533.73 1146.17,-495.13 1051.26,-443.23 1033.21,-433.36 1014.96,-421.49 997.7,-409.19"/>
<polygon fill="black" stroke="black" points="1000.15,-406.65 990,-403.62 996.05,-412.32 1000.15,-406.65"/>
</g>
<!-- TS -->
<g id="node3" class="node">
<title>TS</title>
<g id="a_node3"><a xlink:href="https://www.ipcc.ch/report/ar6/wg2/chapter/technical-summary/" xlink:title="Technical Summary">
<ellipse fill="lightgrey" stroke="lightgrey" cx="1173.26" cy="-328.93" rx="86.15" ry="86.15"/>
<text text-anchor="middle" x="1173.26" y="-323.88" font-family="Times New Roman,serif" font-size="14.00">Technical Summary</text>
</a>
</g>
</g>
<!-- AR6&#45;&gt;TS -->
<g id="edge27" class="edge">
<title>AR6&#45;&gt;TS</title>
<path fill="none" stroke="black" d="M1350.49,-527.79C1320.05,-493.8 1275.02,-443.53 1237.96,-402.17"/>
<polygon fill="black" stroke="black" points="1240.72,-400 1231.44,-394.88 1235.5,-404.67 1240.72,-400"/>
</g>
<!-- FR -->
<g id="node4" class="node">
<title>FR</title>
<g id="a_node4"><a xlink:href="https://www.ipcc.ch/report/ar6/wg2/" xlink:title="Full Report">
<ellipse fill="lightgrey" stroke="lightgrey" cx="1385.26" cy="-328.93" rx="53.4" ry="53.4"/>
<text text-anchor="middle" x="1385.26" y="-323.88" font-family="Times New Roman,serif" font-size="14.00">Full Report</text>
</a>
</g>
</g>
<!-- AR6&#45;&gt;FR -->
<g id="edge28" class="edge">
<title>AR6&#45;&gt;FR</title>
<path fill="none" stroke="black" d="M1385.26,-514.96C1385.26,-479.46 1385.26,-432.07 1385.26,-394.14"/>
<polygon fill="black" stroke="black" points="1388.76,-394.21 1385.26,-384.21 1381.76,-394.21 1388.76,-394.21"/>
</g>
<!-- CP -->
<g id="node5" class="node">
<title>CP</title>
<g id="a_node5"><a xlink:href="https://www.ipcc.ch/report/ar6/wg2/" xlink:title="Chapters">
<ellipse fill="lightyellow" stroke="lightyellow" cx="1554.26" cy="-328.93" rx="43.67" ry="43.67"/>
<text text-anchor="middle" x="1554.26" y="-323.88" font-family="Times New Roman,serif" font-size="14.00">Chapters</text>
</a>
</g>
</g>
<!-- AR6&#45;&gt;CP -->
<g id="edge29" class="edge">
<title>AR6&#45;&gt;CP</title>
<path fill="none" stroke="black" d="M1415.64,-524.71C1432.89,-500.87 1454.85,-470.43 1474.26,-443.23 1490.39,-420.63 1508.23,-395.39 1522.95,-374.48"/>
<polygon fill="black" stroke="black" points="1525.72,-376.64 1528.61,-366.45 1519.99,-372.61 1525.72,-376.64"/>
</g>
<!-- CCP -->
<g id="node6" class="node">
<title>CCP</title>
<g id="a_node6"><a xlink:href="https://www.ipcc.ch/report/ar6/wg2/" xlink:title="Cross Chapters">
<ellipse fill="lightgreen" stroke="lightgreen" cx="3694.26" cy="-328.93" rx="67.22" ry="67.22"/>
<text text-anchor="middle" x="3694.26" y="-323.88" font-family="Times New Roman,serif" font-size="14.00">Cross Chapters</text>
</a>
</g>
</g>
<!-- AR6&#45;&gt;CCP -->
<g id="edge30" class="edge">
<title>AR6&#45;&gt;CCP</title>
<path fill="none" stroke="black" d="M1437.55,-561.25C1738.79,-530.37 3252.06,-375.25 3615.63,-337.99"/>
<polygon fill="black" stroke="black" points="3615.97,-341.47 3625.56,-336.97 3615.25,-334.51 3615.97,-341.47"/>
</g>
<!-- CP1 -->
<g id="node7" class="node">
<title>CP1</title>
<g id="a_node7"><a xlink:href="https://www.ipcc.ch/report/ar6/wg2/chapter/chapter-1/" xlink:title="Chapter 1">
<ellipse fill="lightcoral" stroke="lightcoral" cx="47.26" cy="-71.31" rx="47.26" ry="47.26"/>
<text text-anchor="middle" x="47.26" y="-66.26" font-family="Times New Roman,serif" font-size="14.00">Chapter 1</text>
</a>
</g>
</g>
<!-- CP&#45;&gt;CP1 -->
<g id="edge1" class="edge">
<title>CP&#45;&gt;CP1</title>
<path fill="none" stroke="black" d="M1537.47,-288.14C1524.32,-262.36 1503.34,-230.69 1474.26,-214.62 1212.66,-70.08 409.33,-252.16 131.26,-142.62 115.15,-136.28 99.87,-125.55 86.87,-114.36"/>
<polygon fill="black" stroke="black" points="89.57,-112.08 79.8,-108 84.89,-117.29 89.57,-112.08"/>
</g>
<!-- CP2 -->
<g id="node8" class="node">
<title>CP2</title>
<g id="a_node8"><a xlink:href="https://www.ipcc.ch/report/ar6/wg2/chapter/chapter-2/" xlink:title="Chapter 2">
<ellipse fill="lightcoral" stroke="lightcoral" cx="214.26" cy="-71.31" rx="47.26" ry="47.26"/>
<text text-anchor="middle" x="214.26" y="-66.26" font-family="Times New Roman,serif" font-size="14.00">Chapter 2</text>
</a>
</g>
</g>
<!-- CP&#45;&gt;CP2 -->
<g id="edge2" class="edge">
<title>CP&#45;&gt;CP2</title>
<path fill="none" stroke="black" d="M1537.43,-288.21C1524.26,-262.47 1503.28,-230.8 1474.26,-214.62 1245.57,-87.13 541.5,-239.51 298.26,-142.62 282.17,-136.22 266.9,-125.47 253.9,-114.29"/>
<polygon fill="black" stroke="black" points="256.6,-112.01 246.83,-107.92 251.92,-117.21 256.6,-112.01"/>
</g>
<!-- CP3 -->
<g id="node9" class="node">
<title>CP3</title>
<g id="a_node9"><a xlink:href="https://www.ipcc.ch/report/ar6/wg2/chapter/chapter-3/" xlink:title="Chapter 3">
<ellipse fill="lightcoral" stroke="lightcoral" cx="381.26" cy="-71.31" rx="47.26" ry="47.26"/>
<text text-anchor="middle" x="381.26" y="-66.26" font-family="Times New Roman,serif" font-size="14.00">Chapter 3</text>
</a>
</g>
</g>
<!-- CP&#45;&gt;CP3 -->
<g id="edge3" class="edge">
<title>CP&#45;&gt;CP3</title>
<path fill="none" stroke="black" d="M1537.38,-288.31C1524.19,-262.6 1503.2,-230.95 1474.26,-214.62 1278.47,-104.18 673.67,-226.86 465.26,-142.62 449.2,-136.14 433.94,-125.37 420.94,-114.18"/>
<polygon fill="black" stroke="black" points="423.64,-111.91 413.86,-107.83 418.96,-117.11 423.64,-111.91"/>
</g>
<!-- CP4 -->
<g id="node10" class="node">
<title>CP4</title>
<g id="a_node10"><a xlink:href="https://www.ipcc.ch/report/ar6/wg2/chapter/chapter-4/" xlink:title="Chapter 4">
<ellipse fill="lightcoral" stroke="lightcoral" cx="548.26" cy="-71.31" rx="47.26" ry="47.26"/>
<text text-anchor="middle" x="548.26" y="-66.26" font-family="Times New Roman,serif" font-size="14.00">Chapter 4</text>
</a>
</g>
</g>
<!-- CP&#45;&gt;CP4 -->
<g id="edge4" class="edge">
<title>CP&#45;&gt;CP4</title>
<path fill="none" stroke="black" d="M1537.31,-288.44C1524.08,-262.79 1503.08,-231.15 1474.26,-214.62 1148.44,-27.79 979.48,-285.81 632.26,-142.62 616.4,-136.09 601.29,-125.43 588.37,-114.36"/>
<polygon fill="black" stroke="black" points="590.7,-111.76 580.92,-107.69 586.04,-116.97 590.7,-111.76"/>
</g>
<!-- CP5 -->
<g id="node11" class="node">
<title>CP5</title>
<g id="a_node11"><a xlink:href="https://www.ipcc.ch/report/ar6/wg2/chapter/chapter-5/" xlink:title="Chapter 5">
<ellipse fill="lightcoral" stroke="lightcoral" cx="715.26" cy="-71.31" rx="47.26" ry="47.26"/>
<text text-anchor="middle" x="715.26" y="-66.26" font-family="Times New Roman,serif" font-size="14.00">Chapter 5</text>
</a>
</g>
</g>
<!-- CP&#45;&gt;CP5 -->
<g id="edge5" class="edge">
<title>CP&#45;&gt;CP5</title>
<path fill="none" stroke="black" d="M1537.05,-288.35C1523.77,-262.84 1502.81,-231.39 1474.26,-214.62 1214.12,-61.81 1076.95,-260.56 799.26,-142.62 783.47,-135.92 768.38,-125.21 755.46,-114.15"/>
<polygon fill="black" stroke="black" points="757.79,-111.55 748,-107.5 753.13,-116.77 757.79,-111.55"/>
</g>
<!-- CP6 -->
<g id="node12" class="node">
<title>CP6</title>
<g id="a_node12"><a xlink:href="https://www.ipcc.ch/report/ar6/wg2/chapter/chapter-6/" xlink:title="Chapter 6">
<ellipse fill="lightcoral" stroke="lightcoral" cx="882.26" cy="-71.31" rx="47.26" ry="47.26"/>
<text text-anchor="middle" x="882.26" y="-66.26" font-family="Times New Roman,serif" font-size="14.00">Chapter 6</text>
</a>
</g>
</g>
<!-- CP&#45;&gt;CP6 -->
<g id="edge6" class="edge">
<title>CP&#45;&gt;CP6</title>
<path fill="none" stroke="black" d="M1536.72,-288.39C1523.34,-263.06 1502.41,-231.82 1474.26,-214.62 1279.66,-95.74 1174.58,-235.37 966.26,-142.62 950.73,-135.71 935.8,-125.05 922.96,-114.11"/>
<polygon fill="black" stroke="black" points="925.35,-111.55 915.54,-107.54 920.7,-116.79 925.35,-111.55"/>
</g>
<!-- CP7 -->
<g id="node13" class="node">
<title>CP7</title>
<g id="a_node13"><a xlink:href="https://www.ipcc.ch/report/ar6/wg2/chapter/chapter-7/" xlink:title="Chapter 7">
<ellipse fill="lightcoral" stroke="lightcoral" cx="1049.26" cy="-71.31" rx="47.26" ry="47.26"/>
<text text-anchor="middle" x="1049.26" y="-66.26" font-family="Times New Roman,serif" font-size="14.00">Chapter 7</text>
</a>
</g>
</g>
<!-- CP&#45;&gt;CP7 -->
<g id="edge7" class="edge">
<title>CP&#45;&gt;CP7</title>
<path fill="none" stroke="black" d="M1536.18,-288.72C1522.63,-263.71 1501.71,-232.69 1474.26,-214.62 1344.87,-129.47 1272.56,-210.35 1133.26,-142.62 1117.97,-135.19 1103.12,-124.38 1090.26,-113.45"/>
<polygon fill="black" stroke="black" points="1092.65,-110.89 1082.84,-106.91 1088.03,-116.15 1092.65,-110.89"/>
</g>
<!-- CP8 -->
<g id="node14" class="node">
<title>CP8</title>
<g id="a_node14"><a xlink:href="https://www.ipcc.ch/report/ar6/wg2/chapter/chapter-8/" xlink:title="Chapter 8">
<ellipse fill="lightcoral" stroke="lightcoral" cx="1216.26" cy="-71.31" rx="47.26" ry="47.26"/>
<text text-anchor="middle" x="1216.26" y="-66.26" font-family="Times New Roman,serif" font-size="14.00">Chapter 8</text>
</a>
</g>
</g>
<!-- CP&#45;&gt;CP8 -->
<g id="edge8" class="edge">
<title>CP&#45;&gt;CP8</title>
<path fill="none" stroke="black" d="M1534.56,-289.52C1520.51,-265.32 1499.65,-234.92 1474.26,-214.62 1408.87,-162.38 1371.84,-185.99 1300.26,-142.62 1285.85,-133.9 1271.36,-122.79 1258.57,-112"/>
<polygon fill="black" stroke="black" points="1261.01,-109.48 1251.15,-105.6 1256.43,-114.79 1261.01,-109.48"/>
</g>
<!-- CP9 -->
<g id="node15" class="node">
<title>CP9</title>
<g id="a_node15"><a xlink:href="https://www.ipcc.ch/report/ar6/wg2/chapter/chapter-9/" xlink:title="Chapter 9">
<ellipse fill="lightcoral" stroke="lightcoral" cx="1383.26" cy="-71.31" rx="47.26" ry="47.26"/>
<text text-anchor="middle" x="1383.26" y="-66.26" font-family="Times New Roman,serif" font-size="14.00">Chapter 9</text>
</a>
</g>
</g>
<!-- CP&#45;&gt;CP9 -->
<g id="edge9" class="edge">
<title>CP&#45;&gt;CP9</title>
<path fill="none" stroke="black" d="M1530.3,-292.12C1500.34,-247.33 1448.92,-170.47 1415.51,-120.53"/>
<polygon fill="black" stroke="black" points="1418.6,-118.85 1410.13,-112.49 1412.78,-122.74 1418.6,-118.85"/>
</g>
<!-- CP10 -->
<g id="node16" class="node">
<title>CP10</title>
<g id="a_node16"><a xlink:href="https://www.ipcc.ch/report/ar6/wg2/chapter/chapter-10/" xlink:title="Chapter 10">
<ellipse fill="lightcoral" stroke="lightcoral" cx="1554.26" cy="-71.31" rx="51.86" ry="51.86"/>
<text text-anchor="middle" x="1554.26" y="-66.26" font-family="Times New Roman,serif" font-size="14.00">Chapter 10</text>
</a>
</g>
</g>
<!-- CP&#45;&gt;CP10 -->
<g id="edge10" class="edge">
<title>CP&#45;&gt;CP10</title>
<path fill="none" stroke="black" d="M1554.26,-284.85C1554.26,-243.8 1554.26,-181.51 1554.26,-134.97"/>
<polygon fill="black" stroke="black" points="1557.76,-135.01 1554.26,-125.01 1550.76,-135.01 1557.76,-135.01"/>
</g>
<!-- CP11 -->
<g id="node17" class="node">
<title>CP11</title>
<g id="a_node17"><a xlink:href="https://www.ipcc.ch/report/ar6/wg2/chapter/chapter-11/" xlink:title="Chapter 11">
<ellipse fill="lightcoral" stroke="lightcoral" cx="1730.26" cy="-71.31" rx="51.86" ry="51.86"/>
<text text-anchor="middle" x="1730.26" y="-66.26" font-family="Times New Roman,serif" font-size="14.00">Chapter 11</text>
</a>
</g>
</g>
<!-- CP&#45;&gt;CP11 -->
<g id="edge11" class="edge">
<title>CP&#45;&gt;CP11</title>
<path fill="none" stroke="black" d="M1578.73,-292.39C1608.9,-248.57 1660.4,-173.77 1694.87,-123.7"/>
<polygon fill="black" stroke="black" points="1697.67,-125.81 1700.46,-115.59 1691.91,-121.84 1697.67,-125.81"/>
</g>
<!-- CP12 -->
<g id="node18" class="node">
<title>CP12</title>
<g id="a_node18"><a xlink:href="https://www.ipcc.ch/report/ar6/wg2/chapter/chapter-12/" xlink:title="Chapter 12">
<ellipse fill="lightcoral" stroke="lightcoral" cx="1906.26" cy="-71.31" rx="51.86" ry="51.86"/>
<text text-anchor="middle" x="1906.26" y="-66.26" font-family="Times New Roman,serif" font-size="14.00">Chapter 12</text>
</a>
</g>
</g>
<!-- CP&#45;&gt;CP12 -->
<g id="edge12" class="edge">
<title>CP&#45;&gt;CP12</title>
<path fill="none" stroke="black" d="M1590.2,-303.74C1641.47,-269.01 1738.27,-202.56 1818.26,-142.62 1831.23,-132.91 1845.02,-122.11 1857.75,-111.95"/>
<polygon fill="black" stroke="black" points="1859.57,-114.98 1865.18,-105.99 1855.19,-109.52 1859.57,-114.98"/>
</g>
<!-- CP13 -->
<g id="node19" class="node">
<title>CP13</title>
<g id="a_node19"><a xlink:href="https://www.ipcc.ch/report/ar6/wg2/chapter/chapter-13/" xlink:title="Chapter 13">
<ellipse fill="lightcoral" stroke="lightcoral" cx="2082.26" cy="-71.31" rx="51.86" ry="51.86"/>
<text text-anchor="middle" x="2082.26" y="-66.26" font-family="Times New Roman,serif" font-size="14.00">Chapter 13</text>
</a>
</g>
</g>
<!-- CP&#45;&gt;CP13 -->
<g id="edge13" class="edge">
<title>CP&#45;&gt;CP13</title>
<path fill="none" stroke="black" d="M1595.79,-314.74C1676.03,-288.35 1856.57,-224.48 1994.26,-142.62 2008.32,-134.26 2022.6,-123.85 2035.44,-113.63"/>
<polygon fill="black" stroke="black" points="2037.35,-116.58 2042.91,-107.56 2032.94,-111.15 2037.35,-116.58"/>
</g>
<!-- CP14 -->
<g id="node20" class="node">
<title>CP14</title>
<g id="a_node20"><a xlink:href="https://www.ipcc.ch/report/ar6/wg2/chapter/chapter-14/" xlink:title="Chapter 14">
<ellipse fill="lightcoral" stroke="lightcoral" cx="2258.26" cy="-71.31" rx="51.86" ry="51.86"/>
<text text-anchor="middle" x="2258.26" y="-66.26" font-family="Times New Roman,serif" font-size="14.00">Chapter 14</text>
</a>
</g>
</g>
<!-- CP&#45;&gt;CP14 -->
<g id="edge14" class="edge">
<title>CP&#45;&gt;CP14</title>
<path fill="none" stroke="black" d="M1597.48,-320.8C1701.12,-302.48 1970,-247.69 2170.26,-142.62 2184.75,-135.02 2199.17,-124.87 2212.02,-114.66"/>
<polygon fill="black" stroke="black" points="2213.95,-117.61 2219.47,-108.57 2209.51,-112.19 2213.95,-117.61"/>
</g>
<!-- CP15 -->
<g id="node21" class="node">
<title>CP15</title>
<g id="a_node21"><a xlink:href="https://www.ipcc.ch/report/ar6/wg2/chapter/chapter-15/" xlink:title="Chapter 15">
<ellipse fill="lightcoral" stroke="lightcoral" cx="2434.26" cy="-71.31" rx="51.86" ry="51.86"/>
<text text-anchor="middle" x="2434.26" y="-66.26" font-family="Times New Roman,serif" font-size="14.00">Chapter 15</text>
</a>
</g>
</g>
<!-- CP&#45;&gt;CP15 -->
<g id="edge15" class="edge">
<title>CP&#45;&gt;CP15</title>
<path fill="none" stroke="black" d="M1598.14,-324.48C1721.75,-313.36 2081.08,-271.37 2346.26,-142.62 2361.12,-135.41 2375.76,-125.29 2388.7,-114.98"/>
<polygon fill="black" stroke="black" points="2390.71,-117.86 2396.21,-108.81 2386.26,-112.46 2390.71,-117.86"/>
</g>
<!-- CP16 -->
<g id="node22" class="node">
<title>CP16</title>
<g id="a_node22"><a xlink:href="https://www.ipcc.ch/report/ar6/wg2/chapter/chapter-16/" xlink:title="Chapter 16">
<ellipse fill="lightcoral" stroke="lightcoral" cx="2610.26" cy="-71.31" rx="51.86" ry="51.86"/>
<text text-anchor="middle" x="2610.26" y="-66.26" font-family="Times New Roman,serif" font-size="14.00">Chapter 16</text>
</a>
</g>
</g>
<!-- CP&#45;&gt;CP16 -->
<g id="edge16" class="edge">
<title>CP&#45;&gt;CP16</title>
<path fill="none" stroke="black" d="M1598,-326.94C1738.81,-322.25 2190.45,-295.46 2522.26,-142.62 2537.27,-135.71 2551.95,-125.7 2564.9,-115.39"/>
<polygon fill="black" stroke="black" points="2566.91,-118.27 2572.4,-109.2 2562.46,-112.87 2566.91,-118.27"/>
</g>
<!-- CP17 -->
<g id="node23" class="node">
<title>CP17</title>
<g id="a_node23"><a xlink:href="https://www.ipcc.ch/report/ar6/wg2/chapter/chapter-17/" xlink:title="Chapter 17">
<ellipse fill="lightcoral" stroke="lightcoral" cx="2786.26" cy="-71.31" rx="51.86" ry="51.86"/>
<text text-anchor="middle" x="2786.26" y="-66.26" font-family="Times New Roman,serif" font-size="14.00">Chapter 17</text>
</a>
</g>
</g>
<!-- CP&#45;&gt;CP17 -->
<g id="edge17" class="edge">
<title>CP&#45;&gt;CP17</title>
<path fill="none" stroke="black" d="M1598.3,-328.66C1755.29,-329.68 2299.36,-319.5 2698.26,-142.62 2713.36,-135.93 2728.08,-125.99 2741.03,-115.68"/>
<polygon fill="black" stroke="black" points="2743.05,-118.55 2748.52,-109.49 2738.59,-113.16 2743.05,-118.55"/>
</g>
<!-- CP18 -->
<g id="node24" class="node">
<title>CP18</title>
<g id="a_node24"><a xlink:href="https://www.ipcc.ch/report/ar6/wg2/chapter/chapter-18/" xlink:title="Chapter 18">
<ellipse fill="lightcoral" stroke="lightcoral" cx="2962.26" cy="-71.31" rx="51.86" ry="51.86"/>
<text text-anchor="middle" x="2962.26" y="-66.26" font-family="Times New Roman,serif" font-size="14.00">Chapter 18</text>
</a>
</g>
</g>
<!-- CP&#45;&gt;CP18 -->
<g id="edge18" class="edge">
<title>CP&#45;&gt;CP18</title>
<path fill="none" stroke="black" d="M1598.12,-324.89C1799.48,-310.5 2635.56,-245.46 2874.26,-142.62 2889.43,-136.09 2904.18,-126.2 2917.12,-115.9"/>
<polygon fill="black" stroke="black" points="2919.14,-118.77 2924.62,-109.69 2914.68,-113.37 2919.14,-118.77"/>
</g>
<!-- CPP1 -->
<g id="node25" class="node">
<title>CPP1</title>
<g id="a_node25"><a xlink:href="https://www.ipcc.ch/report/ar6/wg2/chapter/ccp1/" xlink:title="Cross&#45;Chapter 1">
<ellipse fill="lightseagreen" stroke="lightseagreen" cx="3157.26" cy="-71.31" rx="71.31" ry="71.31"/>
<text text-anchor="middle" x="3157.26" y="-66.26" font-family="Times New Roman,serif" font-size="14.00">Cross&#45;Chapter 1</text>
</a>
</g>
</g>
<!-- CCP&#45;&gt;CPP1 -->
<g id="edge19" class="edge">
<title>CCP&#45;&gt;CPP1</title>
<path fill="none" stroke="black" d="M3631.26,-304.59C3546.22,-272.22 3390.9,-210.03 3265.26,-142.62 3251.93,-135.47 3238.11,-127.2 3224.99,-118.89"/>
<polygon fill="black" stroke="black" points="3227.16,-116.12 3216.85,-113.67 3223.38,-122.01 3227.16,-116.12"/>
</g>
<!-- CPP2 -->
<g id="node26" class="node">
<title>CPP2</title>
<g id="a_node26"><a xlink:href="https://www.ipcc.ch/report/ar6/wg2/chapter/ccp2/" xlink:title="Cross&#45;Chapter 2">
<ellipse fill="lightseagreen" stroke="lightseagreen" cx="3372.26" cy="-71.31" rx="71.31" ry="71.31"/>
<text text-anchor="middle" x="3372.26" y="-66.26" font-family="Times New Roman,serif" font-size="14.00">Cross&#45;Chapter 2</text>
</a>
</g>
</g>
<!-- CCP&#45;&gt;CPP2 -->
<g id="edge20" class="edge">
<title>CCP&#45;&gt;CPP2</title>
<path fill="none" stroke="black" d="M3641.81,-286.29C3585.75,-241.79 3496.84,-171.21 3436.6,-123.39"/>
<polygon fill="black" stroke="black" points="3439.12,-120.92 3429.11,-117.45 3434.77,-126.41 3439.12,-120.92"/>
</g>
<!-- CPP3 -->
<g id="node27" class="node">
<title>CPP3</title>
<g id="a_node27"><a xlink:href="https://www.ipcc.ch/report/ar6/wg2/chapter/ccp3/" xlink:title="Cross&#45;Chapter 3">
<ellipse fill="lightseagreen" stroke="lightseagreen" cx="3587.26" cy="-71.31" rx="71.31" ry="71.31"/>
<text text-anchor="middle" x="3587.26" y="-66.26" font-family="Times New Roman,serif" font-size="14.00">Cross&#45;Chapter 3</text>
</a>
</g>
</g>
<!-- CCP&#45;&gt;CPP3 -->
<g id="edge21" class="edge">
<title>CCP&#45;&gt;CPP3</title>
<path fill="none" stroke="black" d="M3668.49,-266.38C3653.57,-230.73 3634.67,-185.57 3618.85,-147.79"/>
<polygon fill="black" stroke="black" points="3622.15,-146.62 3615.06,-138.74 3615.7,-149.32 3622.15,-146.62"/>
</g>
<!-- CPP4 -->
<g id="node28" class="node">
<title>CPP4</title>
<g id="a_node28"><a xlink:href="https://www.ipcc.ch/report/ar6/wg2/chapter/ccp4/" xlink:title="Cross&#45;Chapter 4">
<ellipse fill="lightseagreen" stroke="lightseagreen" cx="3802.26" cy="-71.31" rx="71.31" ry="71.31"/>
<text text-anchor="middle" x="3802.26" y="-66.26" font-family="Times New Roman,serif" font-size="14.00">Cross&#45;Chapter 4</text>
</a>
</g>
</g>
<!-- CCP&#45;&gt;CPP4 -->
<g id="edge22" class="edge">
<title>CCP&#45;&gt;CPP4</title>
<path fill="none" stroke="black" d="M3720.13,-266.7C3735.18,-231.06 3754.29,-185.83 3770.29,-147.98"/>
<polygon fill="black" stroke="black" points="3773.45,-149.47 3774.12,-138.9 3767.01,-146.75 3773.45,-149.47"/>
</g>
<!-- CPP5 -->
<g id="node29" class="node">
<title>CPP5</title>
<g id="a_node29"><a xlink:href="https://www.ipcc.ch/report/ar6/wg2/chapter/ccp5/" xlink:title="Cross&#45;Chapter 5">
<ellipse fill="lightseagreen" stroke="lightseagreen" cx="4017.26" cy="-71.31" rx="71.31" ry="71.31"/>
<text text-anchor="middle" x="4017.26" y="-66.26" font-family="Times New Roman,serif" font-size="14.00">Cross&#45;Chapter 5</text>
</a>
</g>
</g>
<!-- CCP&#45;&gt;CPP5 -->
<g id="edge23" class="edge">
<title>CCP&#45;&gt;CPP5</title>
<path fill="none" stroke="black" d="M3746.51,-286.57C3802.76,-242.06 3892.28,-171.22 3952.84,-123.29"/>
<polygon fill="black" stroke="black" points="3954.7,-126.28 3960.37,-117.33 3950.36,-120.79 3954.7,-126.28"/>
</g>
<!-- CPP6 -->
<g id="node30" class="node">
<title>CPP6</title>
<g id="a_node30"><a xlink:href="https://www.ipcc.ch/report/ar6/wg2/chapter/ccp6/" xlink:title="Cross&#45;Chapter 6">
<ellipse fill="lightseagreen" stroke="lightseagreen" cx="4232.26" cy="-71.31" rx="71.31" ry="71.31"/>
<text text-anchor="middle" x="4232.26" y="-66.26" font-family="Times New Roman,serif" font-size="14.00">Cross&#45;Chapter 6</text>
</a>
</g>
</g>
<!-- CCP&#45;&gt;CPP6 -->
<g id="edge24" class="edge">
<title>CCP&#45;&gt;CPP6</title>
<path fill="none" stroke="black" d="M3757.41,-304.61C3842.65,-272.27 3998.34,-210.11 4124.26,-142.62 4137.59,-135.48 4151.41,-127.21 4164.53,-118.9"/>
<polygon fill="black" stroke="black" points="4166.14,-122.02 4172.67,-113.68 4162.36,-116.13 4166.14,-122.02"/>
</g>
<!-- CPP7 -->
<g id="node31" class="node">
<title>CPP7</title>
<g id="a_node31"><a xlink:href="https://www.ipcc.ch/report/ar6/wg2/chapter/ccp7/" xlink:title="Cross&#45;Chapter 7">
<ellipse fill="lightseagreen" stroke="lightseagreen" cx="4447.26" cy="-71.31" rx="71.31" ry="71.31"/>
<text text-anchor="middle" x="4447.26" y="-66.26" font-family="Times New Roman,serif" font-size="14.00">Cross&#45;Chapter 7</text>
</a>
</g>
</g>
<!-- CCP&#45;&gt;CPP7 -->
<g id="edge25" class="edge">
<title>CCP&#45;&gt;CPP7</title>
<path fill="none" stroke="black" d="M3760.61,-315.67C3880.14,-292.12 4137.9,-234.59 4339.26,-142.62 4353.1,-136.3 4367.2,-128.38 4380.46,-120.15"/>
<polygon fill="black" stroke="black" points="4382.1,-123.25 4388.67,-114.94 4378.35,-117.35 4382.1,-123.25"/>
</g>
</g>
</svg>
