<?xml version="1.0" encoding="UTF-8" standalone="no"?>
<!DOCTYPE svg PUBLIC "-//W3C//DTD SVG 1.1//EN"
 "http://www.w3.org/Graphics/SVG/1.1/DTD/svg11.dtd">
<!-- Generated by graphviz version 12.2.1 (20241206.2353)
 -->
<!-- Title: AR6_WGII Pages: 1 -->
<svg width="4599pt" height="332pt"
 viewBox="36.00 36.00 4562.57 296.00" xmlns="http://www.w3.org/2000/svg" xmlns:xlink="http://www.w3.org/1999/xlink">
<g id="graph0" class="graph" transform="scale(1 1) rotate(0) translate(40 292)">
<title>AR6_WGII</title>
<polygon fill="white" stroke="none" points="-4,4 -4,-256 4522.57,-256 4522.57,4 -4,4"/>
<!-- AR6 -->
<g id="node1" class="node">
<title>AR6</title>
<g id="a_node1"><a xlink:href="https://www.ipcc.ch/report/ar6/wg2/" xlink:title="AR6 WGII">
<ellipse fill="lightblue" stroke="lightblue" cx="1385.26" cy="-234" rx="52.38" ry="18"/>
<text text-anchor="middle" x="1385.26" y="-228.95" font-family="Times New Roman,serif" font-size="14.00">AR6 WGII</text>
</a>
</g>
</g>
<!-- SPM -->
<g id="node2" class="node">
<title>SPM</title>
<g id="a_node2"><a xlink:href="https://www.ipcc.ch/report/ar6/wg2/chapter/summary-for-policymakers/" xlink:title="Summary for Policymakers">
<ellipse fill="lightgrey" stroke="lightgrey" cx="901.26" cy="-126" rx="114.3" ry="18"/>
<text text-anchor="middle" x="901.26" y="-120.95" font-family="Times New Roman,serif" font-size="14.00">Summary for Policymakers</text>
</a>
</g>
</g>
<!-- AR6&#45;&gt;SPM -->
<g id="edge26" class="edge">
<title>AR6&#45;&gt;SPM</title>
<path fill="none" stroke="black" d="M1341.88,-223.5C1259.58,-205.48 1079.84,-166.11 977.16,-143.62"/>
<polygon fill="black" stroke="black" points="977.95,-140.21 967.43,-141.49 976.45,-147.05 977.95,-140.21"/>
</g>
<!-- TS -->
<g id="node3" class="node">
<title>TS</title>
<g id="a_node3"><a xlink:href="https://www.ipcc.ch/report/ar6/wg2/chapter/technical-summary/" xlink:title="Technical Summary">
<ellipse fill="lightgrey" stroke="lightgrey" cx="1173.26" cy="-126" rx="86.15" ry="18"/>
<text text-anchor="middle" x="1173.26" y="-120.95" font-family="Times New Roman,serif" font-size="14.00">Technical Summary</text>
</a>
</g>
</g>
<!-- AR6&#45;&gt;TS -->
<g id="edge27" class="edge">
<title>AR6&#45;&gt;TS</title>
<path fill="none" stroke="black" d="M1356.67,-218.7C1320.41,-200.58 1257.58,-169.16 1215.71,-148.23"/>
<polygon fill="black" stroke="black" points="1217.41,-145.16 1206.9,-143.82 1214.28,-151.43 1217.41,-145.16"/>
</g>
<!-- FR -->
<g id="node4" class="node">
<title>FR</title>
<g id="a_node4"><a xlink:href="https://www.ipcc.ch/report/ar6/wg2/" xlink:title="Full Report">
<ellipse fill="lightgrey" stroke="lightgrey" cx="1385.26" cy="-126" rx="53.4" ry="18"/>
<text text-anchor="middle" x="1385.26" y="-120.95" font-family="Times New Roman,serif" font-size="14.00">Full Report</text>
</a>
</g>
</g>
<!-- AR6&#45;&gt;FR -->
<g id="edge28" class="edge">
<title>AR6&#45;&gt;FR</title>
<path fill="none" stroke="black" d="M1385.26,-215.97C1385.26,-199.76 1385.26,-175.06 1385.26,-155.79"/>
<polygon fill="black" stroke="black" points="1388.76,-155.85 1385.26,-145.85 1381.76,-155.85 1388.76,-155.85"/>
</g>
<!-- CP -->
<g id="node5" class="node">
<title>CP</title>
<g id="a_node5"><a xlink:href="https://www.ipcc.ch/report/ar6/wg2/" xlink:title="Chapters">
<ellipse fill="lightyellow" stroke="lightyellow" cx="1554.26" cy="-126" rx="43.67" ry="18"/>
<text text-anchor="middle" x="1554.26" y="-120.95" font-family="Times New Roman,serif" font-size="14.00">Chapters</text>
</a>
</g>
</g>
<!-- AR6&#45;&gt;CP -->
<g id="edge29" class="edge">
<title>AR6&#45;&gt;CP</title>
<path fill="none" stroke="black" d="M1409.47,-217.81C1438.83,-199.4 1488.46,-168.27 1521.29,-147.67"/>
<polygon fill="black" stroke="black" points="1523.01,-150.73 1529.62,-142.45 1519.29,-144.8 1523.01,-150.73"/>
</g>
<!-- CCP -->
<g id="node6" class="node">
<title>CCP</title>
<g id="a_node6"><a xlink:href="https://www.ipcc.ch/report/ar6/wg2/" xlink:title="Cross Chapters">
<ellipse fill="lightgreen" stroke="lightgreen" cx="3694.26" cy="-126" rx="67.22" ry="18"/>
<text text-anchor="middle" x="3694.26" y="-120.95" font-family="Times New Roman,serif" font-size="14.00">Cross Chapters</text>
</a>
</g>
</g>
<!-- AR6&#45;&gt;CCP -->
<g id="edge30" class="edge">
<title>AR6&#45;&gt;CCP</title>
<path fill="none" stroke="black" d="M1437,-230.62C1737.33,-216.84 3255.78,-147.13 3617.04,-130.54"/>
<polygon fill="black" stroke="black" points="3617.06,-134.05 3626.89,-130.09 3616.74,-127.06 3617.06,-134.05"/>
</g>
<!-- CP1 -->
<g id="node7" class="node">
<title>CP1</title>
<g id="a_node7"><a xlink:href="https://www.ipcc.ch/report/ar6/wg2/chapter/chapter-1/" xlink:title="Chapter 1">
<ellipse fill="lightcoral" stroke="lightcoral" cx="47.26" cy="-18" rx="47.26" ry="18"/>
<text text-anchor="middle" x="47.26" y="-12.95" font-family="Times New Roman,serif" font-size="14.00">Chapter 1</text>
</a>
</g>
</g>
<!-- CP&#45;&gt;CP1 -->
<g id="edge1" class="edge">
<title>CP&#45;&gt;CP1</title>
<path fill="none" stroke="black" d="M1517.42,-115.92C1503.93,-112.92 1488.47,-109.88 1474.26,-108 881.67,-29.64 724.22,-111.49 131.26,-36 120.41,-34.62 108.87,-32.63 97.93,-30.5"/>
<polygon fill="black" stroke="black" points="98.78,-27.1 88.28,-28.54 97.39,-33.96 98.78,-27.1"/>
</g>
<!-- CP2 -->
<g id="node8" class="node">
<title>CP2</title>
<g id="a_node8"><a xlink:href="https://www.ipcc.ch/report/ar6/wg2/chapter/chapter-2/" xlink:title="Chapter 2">
<ellipse fill="lightcoral" stroke="lightcoral" cx="214.26" cy="-18" rx="47.26" ry="18"/>
<text text-anchor="middle" x="214.26" y="-12.95" font-family="Times New Roman,serif" font-size="14.00">Chapter 2</text>
</a>
</g>
</g>
<!-- CP&#45;&gt;CP2 -->
<g id="edge2" class="edge">
<title>CP&#45;&gt;CP2</title>
<path fill="none" stroke="black" d="M1517.42,-115.98C1503.92,-112.99 1488.47,-109.93 1474.26,-108 955.39,-37.38 817.46,-104.1 298.26,-36 287.42,-34.58 275.88,-32.57 264.94,-30.43"/>
<polygon fill="black" stroke="black" points="265.79,-27.04 255.29,-28.48 264.4,-33.9 265.79,-27.04"/>
</g>
<!-- CP3 -->
<g id="node9" class="node">
<title>CP3</title>
<g id="a_node9"><a xlink:href="https://www.ipcc.ch/report/ar6/wg2/chapter/chapter-3/" xlink:title="Chapter 3">
<ellipse fill="lightcoral" stroke="lightcoral" cx="381.26" cy="-18" rx="47.26" ry="18"/>
<text text-anchor="middle" x="381.26" y="-12.95" font-family="Times New Roman,serif" font-size="14.00">Chapter 3</text>
</a>
</g>
</g>
<!-- CP&#45;&gt;CP3 -->
<g id="edge3" class="edge">
<title>CP&#45;&gt;CP3</title>
<path fill="none" stroke="black" d="M1517.41,-116.06C1503.9,-113.07 1488.46,-110.01 1474.26,-108 1029.09,-45.13 910.72,-96.71 465.26,-36 454.42,-34.52 442.89,-32.49 431.95,-30.35"/>
<polygon fill="black" stroke="black" points="432.8,-26.95 422.3,-28.4 431.41,-33.81 432.8,-26.95"/>
</g>
<!-- CP4 -->
<g id="node10" class="node">
<title>CP4</title>
<g id="a_node10"><a xlink:href="https://www.ipcc.ch/report/ar6/wg2/chapter/chapter-4/" xlink:title="Chapter 4">
<ellipse fill="lightcoral" stroke="lightcoral" cx="548.26" cy="-18" rx="47.26" ry="18"/>
<text text-anchor="middle" x="548.26" y="-12.95" font-family="Times New Roman,serif" font-size="14.00">Chapter 4</text>
</a>
</g>
</g>
<!-- CP&#45;&gt;CP4 -->
<g id="edge4" class="edge">
<title>CP&#45;&gt;CP4</title>
<path fill="none" stroke="black" d="M1516.99,-116.08C1503.58,-113.13 1488.3,-110.08 1474.26,-108 1102.74,-52.86 1004.04,-89.34 632.26,-36 621.54,-34.46 610.14,-32.43 599.3,-30.3"/>
<polygon fill="black" stroke="black" points="600.24,-26.92 589.74,-28.37 598.85,-33.78 600.24,-26.92"/>
</g>
<!-- CP5 -->
<g id="node11" class="node">
<title>CP5</title>
<g id="a_node11"><a xlink:href="https://www.ipcc.ch/report/ar6/wg2/chapter/chapter-5/" xlink:title="Chapter 5">
<ellipse fill="lightcoral" stroke="lightcoral" cx="715.26" cy="-18" rx="47.26" ry="18"/>
<text text-anchor="middle" x="715.26" y="-12.95" font-family="Times New Roman,serif" font-size="14.00">Chapter 5</text>
</a>
</g>
</g>
<!-- CP&#45;&gt;CP5 -->
<g id="edge5" class="edge">
<title>CP&#45;&gt;CP5</title>
<path fill="none" stroke="black" d="M1516.96,-116.24C1503.55,-113.31 1488.28,-110.23 1474.26,-108 1176.3,-60.58 1097.44,-81.97 799.26,-36 788.56,-34.35 777.16,-32.27 766.32,-30.13"/>
<polygon fill="black" stroke="black" points="767.26,-26.75 756.77,-28.19 765.87,-33.61 767.26,-26.75"/>
</g>
<!-- CP6 -->
<g id="node12" class="node">
<title>CP6</title>
<g id="a_node12"><a xlink:href="https://www.ipcc.ch/report/ar6/wg2/chapter/chapter-6/" xlink:title="Chapter 6">
<ellipse fill="lightcoral" stroke="lightcoral" cx="882.26" cy="-18" rx="47.26" ry="18"/>
<text text-anchor="middle" x="882.26" y="-12.95" font-family="Times New Roman,serif" font-size="14.00">Chapter 6</text>
</a>
</g>
</g>
<!-- CP&#45;&gt;CP6 -->
<g id="edge6" class="edge">
<title>CP&#45;&gt;CP6</title>
<path fill="none" stroke="black" d="M1516.51,-116.42C1503.2,-113.55 1488.1,-110.45 1474.26,-108 1249.71,-68.28 1190.99,-74.63 966.26,-36 955.81,-34.2 944.67,-32.09 934.04,-29.98"/>
<polygon fill="black" stroke="black" points="934.73,-26.55 924.24,-28 933.35,-33.41 934.73,-26.55"/>
</g>
<!-- CP7 -->
<g id="node13" class="node">
<title>CP7</title>
<g id="a_node13"><a xlink:href="https://www.ipcc.ch/report/ar6/wg2/chapter/chapter-7/" xlink:title="Chapter 7">
<ellipse fill="lightcoral" stroke="lightcoral" cx="1049.26" cy="-18" rx="47.26" ry="18"/>
<text text-anchor="middle" x="1049.26" y="-12.95" font-family="Times New Roman,serif" font-size="14.00">Chapter 7</text>
</a>
</g>
</g>
<!-- CP&#45;&gt;CP7 -->
<g id="edge7" class="edge">
<title>CP&#45;&gt;CP7</title>
<path fill="none" stroke="black" d="M1516.01,-116.85C1502.79,-114.04 1487.87,-110.87 1474.26,-108 1339.8,-79.64 1181.34,-46.54 1101.23,-29.83"/>
<polygon fill="black" stroke="black" points="1101.98,-26.41 1091.48,-27.8 1100.55,-33.27 1101.98,-26.41"/>
</g>
<!-- CP8 -->
<g id="node14" class="node">
<title>CP8</title>
<g id="a_node14"><a xlink:href="https://www.ipcc.ch/report/ar6/wg2/chapter/chapter-8/" xlink:title="Chapter 8">
<ellipse fill="lightcoral" stroke="lightcoral" cx="1216.26" cy="-18" rx="47.26" ry="18"/>
<text text-anchor="middle" x="1216.26" y="-12.95" font-family="Times New Roman,serif" font-size="14.00">Chapter 8</text>
</a>
</g>
</g>
<!-- CP&#45;&gt;CP8 -->
<g id="edge8" class="edge">
<title>CP&#45;&gt;CP8</title>
<path fill="none" stroke="black" d="M1520.3,-114.35C1459.49,-95.28 1331.91,-55.27 1262.92,-33.63"/>
<polygon fill="black" stroke="black" points="1264,-30.3 1253.41,-30.65 1261.91,-36.98 1264,-30.3"/>
</g>
<!-- CP9 -->
<g id="node15" class="node">
<title>CP9</title>
<g id="a_node15"><a xlink:href="https://www.ipcc.ch/report/ar6/wg2/chapter/chapter-9/" xlink:title="Chapter 9">
<ellipse fill="lightcoral" stroke="lightcoral" cx="1383.26" cy="-18" rx="47.26" ry="18"/>
<text text-anchor="middle" x="1383.26" y="-12.95" font-family="Times New Roman,serif" font-size="14.00">Chapter 9</text>
</a>
</g>
</g>
<!-- CP&#45;&gt;CP9 -->
<g id="edge9" class="edge">
<title>CP&#45;&gt;CP9</title>
<path fill="none" stroke="black" d="M1530.84,-110.48C1501.28,-92.16 1450.26,-60.53 1416.63,-39.69"/>
<polygon fill="black" stroke="black" points="1418.85,-36.94 1408.5,-34.65 1415.16,-42.89 1418.85,-36.94"/>
</g>
<!-- CP10 -->
<g id="node16" class="node">
<title>CP10</title>
<g id="a_node16"><a xlink:href="https://www.ipcc.ch/report/ar6/wg2/chapter/chapter-10/" xlink:title="Chapter 10">
<ellipse fill="lightcoral" stroke="lightcoral" cx="1554.26" cy="-18" rx="51.86" ry="18"/>
<text text-anchor="middle" x="1554.26" y="-12.95" font-family="Times New Roman,serif" font-size="14.00">Chapter 10</text>
</a>
</g>
</g>
<!-- CP&#45;&gt;CP10 -->
<g id="edge10" class="edge">
<title>CP&#45;&gt;CP10</title>
<path fill="none" stroke="black" d="M1554.26,-107.97C1554.26,-91.76 1554.26,-67.06 1554.26,-47.79"/>
<polygon fill="black" stroke="black" points="1557.76,-47.85 1554.26,-37.85 1550.76,-47.85 1557.76,-47.85"/>
</g>
<!-- CP11 -->
<g id="node17" class="node">
<title>CP11</title>
<g id="a_node17"><a xlink:href="https://www.ipcc.ch/report/ar6/wg2/chapter/chapter-11/" xlink:title="Chapter 11">
<ellipse fill="lightcoral" stroke="lightcoral" cx="1730.26" cy="-18" rx="51.86" ry="18"/>
<text text-anchor="middle" x="1730.26" y="-12.95" font-family="Times New Roman,serif" font-size="14.00">Chapter 11</text>
</a>
</g>
</g>
<!-- CP&#45;&gt;CP11 -->
<g id="edge11" class="edge">
<title>CP&#45;&gt;CP11</title>
<path fill="none" stroke="black" d="M1577.99,-110.7C1608.22,-92.5 1660.7,-60.89 1695.46,-39.96"/>
<polygon fill="black" stroke="black" points="1697.14,-43.03 1703.9,-34.87 1693.53,-37.04 1697.14,-43.03"/>
</g>
<!-- CP12 -->
<g id="node18" class="node">
<title>CP12</title>
<g id="a_node18"><a xlink:href="https://www.ipcc.ch/report/ar6/wg2/chapter/chapter-12/" xlink:title="Chapter 12">
<ellipse fill="lightcoral" stroke="lightcoral" cx="1906.26" cy="-18" rx="51.86" ry="18"/>
<text text-anchor="middle" x="1906.26" y="-12.95" font-family="Times New Roman,serif" font-size="14.00">Chapter 12</text>
</a>
</g>
</g>
<!-- CP&#45;&gt;CP12 -->
<g id="edge12" class="edge">
<title>CP&#45;&gt;CP12</title>
<path fill="none" stroke="black" d="M1588.65,-114.64C1651.51,-95.71 1785.1,-55.48 1857.38,-33.72"/>
<polygon fill="black" stroke="black" points="1857.99,-37.19 1866.56,-30.95 1855.97,-30.49 1857.99,-37.19"/>
</g>
<!-- CP13 -->
<g id="node19" class="node">
<title>CP13</title>
<g id="a_node19"><a xlink:href="https://www.ipcc.ch/report/ar6/wg2/chapter/chapter-13/" xlink:title="Chapter 13">
<ellipse fill="lightcoral" stroke="lightcoral" cx="2082.26" cy="-18" rx="51.86" ry="18"/>
<text text-anchor="middle" x="2082.26" y="-12.95" font-family="Times New Roman,serif" font-size="14.00">Chapter 13</text>
</a>
</g>
</g>
<!-- CP&#45;&gt;CP13 -->
<g id="edge13" class="edge">
<title>CP&#45;&gt;CP13</title>
<path fill="none" stroke="black" d="M1593.08,-117.21C1685.68,-98.61 1919.76,-51.62 2027.03,-30.09"/>
<polygon fill="black" stroke="black" points="2027.64,-33.54 2036.75,-28.14 2026.26,-26.67 2027.64,-33.54"/>
</g>
<!-- CP14 -->
<g id="node20" class="node">
<title>CP14</title>
<g id="a_node20"><a xlink:href="https://www.ipcc.ch/report/ar6/wg2/chapter/chapter-14/" xlink:title="Chapter 14">
<ellipse fill="lightcoral" stroke="lightcoral" cx="2258.26" cy="-18" rx="51.86" ry="18"/>
<text text-anchor="middle" x="2258.26" y="-12.95" font-family="Times New Roman,serif" font-size="14.00">Chapter 14</text>
</a>
</g>
</g>
<!-- CP&#45;&gt;CP14 -->
<g id="edge14" class="edge">
<title>CP&#45;&gt;CP14</title>
<path fill="none" stroke="black" d="M1595.45,-119.73C1694.64,-106.9 1954.5,-72.41 2170.26,-36 2180.96,-34.19 2192.37,-32.11 2203.3,-30.03"/>
<polygon fill="black" stroke="black" points="2203.82,-33.5 2212.98,-28.17 2202.5,-26.62 2203.82,-33.5"/>
</g>
<!-- CP15 -->
<g id="node21" class="node">
<title>CP15</title>
<g id="a_node21"><a xlink:href="https://www.ipcc.ch/report/ar6/wg2/chapter/chapter-15/" xlink:title="Chapter 15">
<ellipse fill="lightcoral" stroke="lightcoral" cx="2434.26" cy="-18" rx="51.86" ry="18"/>
<text text-anchor="middle" x="2434.26" y="-12.95" font-family="Times New Roman,serif" font-size="14.00">Chapter 15</text>
</a>
</g>
</g>
<!-- CP&#45;&gt;CP15 -->
<g id="edge15" class="edge">
<title>CP&#45;&gt;CP15</title>
<path fill="none" stroke="black" d="M1596.91,-121.4C1715.89,-111.1 2061.41,-79.45 2346.26,-36 2356.99,-34.36 2368.41,-32.36 2379.34,-30.3"/>
<polygon fill="black" stroke="black" points="2379.86,-33.77 2389.02,-28.44 2378.54,-26.89 2379.86,-33.77"/>
</g>
<!-- CP16 -->
<g id="node22" class="node">
<title>CP16</title>
<g id="a_node22"><a xlink:href="https://www.ipcc.ch/report/ar6/wg2/chapter/chapter-16/" xlink:title="Chapter 16">
<ellipse fill="lightcoral" stroke="lightcoral" cx="2610.26" cy="-18" rx="51.86" ry="18"/>
<text text-anchor="middle" x="2610.26" y="-12.95" font-family="Times New Roman,serif" font-size="14.00">Chapter 16</text>
</a>
</g>
</g>
<!-- CP&#45;&gt;CP16 -->
<g id="edge16" class="edge">
<title>CP&#45;&gt;CP16</title>
<path fill="none" stroke="black" d="M1597.37,-122.57C1733.6,-114.55 2166.79,-86.55 2522.26,-36 2533.12,-34.46 2544.67,-32.47 2555.71,-30.41"/>
<polygon fill="black" stroke="black" points="2556.34,-33.85 2565.5,-28.53 2555.02,-26.98 2556.34,-33.85"/>
</g>
<!-- CP17 -->
<g id="node23" class="node">
<title>CP17</title>
<g id="a_node23"><a xlink:href="https://www.ipcc.ch/report/ar6/wg2/chapter/chapter-17/" xlink:title="Chapter 17">
<ellipse fill="lightcoral" stroke="lightcoral" cx="2786.26" cy="-18" rx="51.86" ry="18"/>
<text text-anchor="middle" x="2786.26" y="-12.95" font-family="Times New Roman,serif" font-size="14.00">Chapter 17</text>
</a>
</g>
</g>
<!-- CP&#45;&gt;CP17 -->
<g id="edge17" class="edge">
<title>CP&#45;&gt;CP17</title>
<path fill="none" stroke="black" d="M1597.82,-123.39C1749.97,-117.38 2271.58,-93.62 2698.26,-36 2709.13,-34.53 2720.69,-32.58 2731.73,-30.53"/>
<polygon fill="black" stroke="black" points="2732.35,-33.97 2741.51,-28.65 2731.03,-27.1 2732.35,-33.97"/>
</g>
<!-- CP18 -->
<g id="node24" class="node">
<title>CP18</title>
<g id="a_node24"><a xlink:href="https://www.ipcc.ch/report/ar6/wg2/chapter/chapter-18/" xlink:title="Chapter 18">
<ellipse fill="lightcoral" stroke="lightcoral" cx="2962.26" cy="-18" rx="51.86" ry="18"/>
<text text-anchor="middle" x="2962.26" y="-12.95" font-family="Times New Roman,serif" font-size="14.00">Chapter 18</text>
</a>
</g>
</g>
<!-- CP&#45;&gt;CP18 -->
<g id="edge18" class="edge">
<title>CP&#45;&gt;CP18</title>
<path fill="none" stroke="black" d="M1598.03,-124.01C1764.75,-119.83 2375.71,-100.71 2874.26,-36 2885.37,-34.56 2897.19,-32.58 2908.44,-30.49"/>
<polygon fill="black" stroke="black" points="2908.82,-33.98 2917.97,-28.65 2907.49,-27.11 2908.82,-33.98"/>
</g>
<!-- CPP1 -->
<g id="node25" class="node">
<title>CPP1</title>
<g id="a_node25"><a xlink:href="https://www.ipcc.ch/report/ar6/wg2/chapter/ccp1/" xlink:title="Cross&#45;Chapter 1">
<ellipse fill="lightseagreen" stroke="lightseagreen" cx="3157.26" cy="-18" rx="71.31" ry="18"/>
<text text-anchor="middle" x="3157.26" y="-12.95" font-family="Times New Roman,serif" font-size="14.00">Cross&#45;Chapter 1</text>
</a>
</g>
</g>
<!-- CCP&#45;&gt;CPP1 -->
<g id="edge19" class="edge">
<title>CCP&#45;&gt;CPP1</title>
<path fill="none" stroke="black" d="M3641.3,-114.55C3542.65,-95.07 3331.03,-53.3 3223.26,-32.03"/>
<polygon fill="black" stroke="black" points="3224.19,-28.64 3213.7,-30.14 3222.83,-35.51 3224.19,-28.64"/>
</g>
<!-- CPP2 -->
<g id="node26" class="node">
<title>CPP2</title>
<g id="a_node26"><a xlink:href="https://www.ipcc.ch/report/ar6/wg2/chapter/ccp2/" xlink:title="Cross&#45;Chapter 2">
<ellipse fill="lightseagreen" stroke="lightseagreen" cx="3372.26" cy="-18" rx="71.31" ry="18"/>
<text text-anchor="middle" x="3372.26" y="-12.95" font-family="Times New Roman,serif" font-size="14.00">Cross&#45;Chapter 2</text>
</a>
</g>
</g>
<!-- CCP&#45;&gt;CPP2 -->
<g id="edge20" class="edge">
<title>CCP&#45;&gt;CPP2</title>
<path fill="none" stroke="black" d="M3653.15,-111.47C3595.05,-92.34 3488.9,-57.4 3425.04,-36.38"/>
<polygon fill="black" stroke="black" points="3426.43,-33.15 3415.83,-33.35 3424.24,-39.8 3426.43,-33.15"/>
</g>
<!-- CPP3 -->
<g id="node27" class="node">
<title>CPP3</title>
<g id="a_node27"><a xlink:href="https://www.ipcc.ch/report/ar6/wg2/chapter/ccp3/" xlink:title="Cross&#45;Chapter 3">
<ellipse fill="lightseagreen" stroke="lightseagreen" cx="3587.26" cy="-18" rx="71.31" ry="18"/>
<text text-anchor="middle" x="3587.26" y="-12.95" font-family="Times New Roman,serif" font-size="14.00">Cross&#45;Chapter 3</text>
</a>
</g>
</g>
<!-- CCP&#45;&gt;CPP3 -->
<g id="edge21" class="edge">
<title>CCP&#45;&gt;CPP3</title>
<path fill="none" stroke="black" d="M3677.54,-108.44C3660.05,-91.11 3632.41,-63.73 3612.31,-43.82"/>
<polygon fill="black" stroke="black" points="3614.85,-41.41 3605.29,-36.86 3609.93,-46.39 3614.85,-41.41"/>
</g>
<!-- CPP4 -->
<g id="node28" class="node">
<title>CPP4</title>
<g id="a_node28"><a xlink:href="https://www.ipcc.ch/report/ar6/wg2/chapter/ccp4/" xlink:title="Cross&#45;Chapter 4">
<ellipse fill="lightseagreen" stroke="lightseagreen" cx="3802.26" cy="-18" rx="71.31" ry="18"/>
<text text-anchor="middle" x="3802.26" y="-12.95" font-family="Times New Roman,serif" font-size="14.00">Cross&#45;Chapter 4</text>
</a>
</g>
</g>
<!-- CCP&#45;&gt;CPP4 -->
<g id="edge22" class="edge">
<title>CCP&#45;&gt;CPP4</title>
<path fill="none" stroke="black" d="M3711.13,-108.44C3728.78,-91.11 3756.69,-63.73 3776.97,-43.82"/>
<polygon fill="black" stroke="black" points="3779.38,-46.36 3784.06,-36.86 3774.48,-41.36 3779.38,-46.36"/>
</g>
<!-- CPP5 -->
<g id="node29" class="node">
<title>CPP5</title>
<g id="a_node29"><a xlink:href="https://www.ipcc.ch/report/ar6/wg2/chapter/ccp5/" xlink:title="Cross&#45;Chapter 5">
<ellipse fill="lightseagreen" stroke="lightseagreen" cx="4017.26" cy="-18" rx="71.31" ry="18"/>
<text text-anchor="middle" x="4017.26" y="-12.95" font-family="Times New Roman,serif" font-size="14.00">Cross&#45;Chapter 5</text>
</a>
</g>
</g>
<!-- CCP&#45;&gt;CPP5 -->
<g id="edge23" class="edge">
<title>CCP&#45;&gt;CPP5</title>
<path fill="none" stroke="black" d="M3735.49,-111.47C3793.77,-92.34 3900.26,-57.4 3964.31,-36.38"/>
<polygon fill="black" stroke="black" points="3965.14,-39.79 3973.55,-33.34 3962.96,-33.14 3965.14,-39.79"/>
</g>
<!-- CPP6 -->
<g id="node30" class="node">
<title>CPP6</title>
<g id="a_node30"><a xlink:href="https://www.ipcc.ch/report/ar6/wg2/chapter/ccp6/" xlink:title="Cross&#45;Chapter 6">
<ellipse fill="lightseagreen" stroke="lightseagreen" cx="4232.26" cy="-18" rx="71.31" ry="18"/>
<text text-anchor="middle" x="4232.26" y="-12.95" font-family="Times New Roman,serif" font-size="14.00">Cross&#45;Chapter 6</text>
</a>
</g>
</g>
<!-- CCP&#45;&gt;CPP6 -->
<g id="edge24" class="edge">
<title>CCP&#45;&gt;CPP6</title>
<path fill="none" stroke="black" d="M3747.31,-114.55C3846.14,-95.07 4058.16,-53.3 4166.13,-32.03"/>
<polygon fill="black" stroke="black" points="4166.58,-35.51 4175.71,-30.14 4165.22,-28.64 4166.58,-35.51"/>
</g>
<!-- CPP7 -->
<g id="node31" class="node">
<title>CPP7</title>
<g id="a_node31"><a xlink:href="https://www.ipcc.ch/report/ar6/wg2/chapter/ccp7/" xlink:title="Cross&#45;Chapter 7">
<ellipse fill="lightseagreen" stroke="lightseagreen" cx="4447.26" cy="-18" rx="71.31" ry="18"/>
<text text-anchor="middle" x="4447.26" y="-12.95" font-family="Times New Roman,serif" font-size="14.00">Cross&#45;Chapter 7</text>
</a>
</g>
</g>
<!-- CCP&#45;&gt;CPP7 -->
<g id="edge25" class="edge">
<title>CCP&#45;&gt;CPP7</title>
<path fill="none" stroke="black" d="M3753.45,-117.22C3867.09,-102.18 4123.71,-67.83 4339.26,-36 4351.6,-34.18 4364.73,-32.17 4377.42,-30.19"/>
<polygon fill="black" stroke="black" points="4377.6,-33.71 4386.94,-28.7 4376.52,-26.79 4377.6,-33.71"/>
</g>
</g>
</svg>
