<?xml version="1.0" encoding="UTF-8" standalone="no"?>
<!DOCTYPE svg PUBLIC "-//W3C//DTD SVG 1.1//EN"
 "http://www.w3.org/Graphics/SVG/1.1/DTD/svg11.dtd">
<!-- Generated by graphviz version 12.2.1 (20241206.2353)
 -->
<!-- Title: AR6_WGIII Pages: 1 -->
<svg width="1526pt" height="188pt"
 viewBox="0.00 0.00 1525.62 188.00" xmlns="http://www.w3.org/2000/svg" xmlns:xlink="http://www.w3.org/1999/xlink">
<g id="graph0" class="graph" transform="scale(1 1) rotate(0) translate(4 184)">
<title>AR6_WGIII</title>
<polygon fill="white" stroke="none" points="-4,4 -4,-184 1521.62,-184 1521.62,4 -4,4"/>
<!-- AR6 WGIII -->
<g id="node1" class="node">
<title>AR6 WGIII</title>
<g id="a_node1"><a xlink:href="https://www.ipcc.ch/report/ar6/wg3/" xlink:title="AR6 WGIII">
<ellipse fill="blue" stroke="blue" cx="628.62" cy="-162" rx="55.45" ry="18"/>
<text text-anchor="middle" x="628.62" y="-156.95" font-family="Times New Roman,serif" font-size="14.00">AR6 WGIII</text>
</a>
</g>
</g>
<!-- Summary for policymakers -->
<g id="node2" class="node">
<title>Summary for policymakers</title>
<g id="a_node2"><a xlink:href="https://www.ipcc.ch/report/ar6/wg3/chapter/summary-for-policymakers/" xlink:title="Summary for Policymakers">
<ellipse fill="lightblue" stroke="lightblue" cx="265.62" cy="-90" rx="114.3" ry="18"/>
<text text-anchor="middle" x="265.62" y="-84.95" font-family="Times New Roman,serif" font-size="14.00">Summary for Policymakers</text>
</a>
</g>
</g>
<!-- AR6 WGIII&#45;&gt;Summary for policymakers -->
<g id="edge20" class="edge">
<title>AR6 WGIII&#45;&gt;Summary for policymakers</title>
<path fill="none" stroke="black" d="M581.91,-151.99C522.63,-140.56 419.39,-120.65 347.03,-106.7"/>
<polygon fill="black" stroke="black" points="348.11,-103.34 337.63,-104.88 346.78,-110.21 348.11,-103.34"/>
</g>
<!-- Technical summary -->
<g id="node3" class="node">
<title>Technical summary</title>
<g id="a_node3"><a xlink:href="https://www.ipcc.ch/report/ar6/wg3/chapter/technical-summary/" xlink:title="Technical Summary">
<ellipse fill="lightblue" stroke="lightblue" cx="483.62" cy="-90" rx="86.15" ry="18"/>
<text text-anchor="middle" x="483.62" y="-84.95" font-family="Times New Roman,serif" font-size="14.00">Technical Summary</text>
</a>
</g>
</g>
<!-- AR6 WGIII&#45;&gt;Technical summary -->
<g id="edge21" class="edge">
<title>AR6 WGIII&#45;&gt;Technical summary</title>
<path fill="none" stroke="black" d="M598.58,-146.5C577.94,-136.53 550.2,-123.14 527.14,-112.01"/>
<polygon fill="black" stroke="black" points="528.81,-108.93 518.28,-107.73 525.77,-115.23 528.81,-108.93"/>
</g>
<!-- Authors -->
<g id="node4" class="node">
<title>Authors</title>
<g id="a_node4"><a xlink:href="https://www.ipcc.ch/report/ar6/wg3/about/authors" xlink:title="Authors">
<ellipse fill="lightblue" stroke="lightblue" cx="628.62" cy="-90" rx="40.6" ry="18"/>
<text text-anchor="middle" x="628.62" y="-84.95" font-family="Times New Roman,serif" font-size="14.00">Authors</text>
</a>
</g>
</g>
<!-- AR6 WGIII&#45;&gt;Authors -->
<g id="edge22" class="edge">
<title>AR6 WGIII&#45;&gt;Authors</title>
<path fill="none" stroke="black" d="M628.62,-143.7C628.62,-136.41 628.62,-127.73 628.62,-119.54"/>
<polygon fill="black" stroke="black" points="632.13,-119.62 628.63,-109.62 625.13,-119.62 632.13,-119.62"/>
</g>
<!-- Chapters -->
<g id="node5" class="node">
<title>Chapters</title>
<ellipse fill="green" stroke="green" cx="730.62" cy="-90" rx="43.67" ry="18"/>
<text text-anchor="middle" x="730.62" y="-84.95" font-family="Times New Roman,serif" font-size="14.00">Chapters</text>
</g>
<!-- AR6 WGIII&#45;&gt;Chapters -->
<g id="edge1" class="edge">
<title>AR6 WGIII&#45;&gt;Chapters</title>
<path fill="none" stroke="black" d="M651.52,-145.29C665.72,-135.54 684.15,-122.89 699.65,-112.26"/>
<polygon fill="black" stroke="black" points="701.35,-115.34 707.61,-106.79 697.39,-109.57 701.35,-115.34"/>
</g>
<!-- FAQs -->
<g id="node23" class="node">
<title>FAQs</title>
<g id="a_node23"><a xlink:href="https://www.ipcc.ch/report/ar6/wg3/about/frequently-asked-questions" xlink:title="FAQs">
<ellipse fill="pink" stroke="pink" cx="824.62" cy="-90" rx="32.41" ry="18"/>
<text text-anchor="middle" x="824.62" y="-84.95" font-family="Times New Roman,serif" font-size="14.00">FAQs</text>
</a>
</g>
</g>
<!-- AR6 WGIII&#45;&gt;FAQs -->
<g id="edge19" class="edge">
<title>AR6 WGIII&#45;&gt;FAQs</title>
<path fill="none" stroke="black" d="M667.09,-148.6C698.6,-138.27 744.25,-122.88 783.62,-108 785.41,-107.33 787.23,-106.62 789.07,-105.9"/>
<polygon fill="black" stroke="black" points="790.19,-109.22 798.17,-102.25 787.59,-102.73 790.19,-109.22"/>
</g>
<!-- Chapter 1 -->
<g id="node6" class="node">
<title>Chapter 1</title>
<g id="a_node6"><a xlink:href="https://www.ipcc.ch/report/ar6/wg3/chapter/chapter-1/" xlink:title="Chapter 1">
<polygon fill="lightgreen" stroke="lightgreen" points="69.25,-36 0,-36 0,0 69.25,0 69.25,-36"/>
<text text-anchor="middle" x="34.62" y="-12.95" font-family="Times New Roman,serif" font-size="14.00">Chapter 1</text>
</a>
</g>
</g>
<!-- Chapters&#45;&gt;Chapter 1 -->
<g id="edge2" class="edge">
<title>Chapters&#45;&gt;Chapter 1</title>
<path fill="none" stroke="black" d="M699.06,-77.26C692.4,-75.18 685.34,-73.28 678.62,-72 419.34,-22.7 341.01,-91.97 80.48,-36.24"/>
<polygon fill="black" stroke="black" points="81.53,-32.89 71.02,-34.17 80.04,-39.72 81.53,-32.89"/>
</g>
<!-- Chapter 2 -->
<g id="node7" class="node">
<title>Chapter 2</title>
<g id="a_node7"><a xlink:href="https://www.ipcc.ch/report/ar6/wg3/chapter/chapter-2/" xlink:title="Chapter 2">
<polygon fill="lightgreen" stroke="lightgreen" points="156.25,-36 87,-36 87,0 156.25,0 156.25,-36"/>
<text text-anchor="middle" x="121.62" y="-12.95" font-family="Times New Roman,serif" font-size="14.00">Chapter 2</text>
</a>
</g>
</g>
<!-- Chapters&#45;&gt;Chapter 2 -->
<g id="edge3" class="edge">
<title>Chapters&#45;&gt;Chapter 2</title>
<path fill="none" stroke="black" d="M698.77,-77.22C692.19,-75.18 685.24,-73.29 678.62,-72 457.49,-28.8 390.11,-84.83 167.6,-36.29"/>
<polygon fill="black" stroke="black" points="168.55,-32.91 158.02,-34.15 167.02,-39.74 168.55,-32.91"/>
</g>
<!-- Chapter 3 -->
<g id="node8" class="node">
<title>Chapter 3</title>
<g id="a_node8"><a xlink:href="https://www.ipcc.ch/report/ar6/wg3/chapter/chapter-3/" xlink:title="Chapter 3">
<polygon fill="lightgreen" stroke="lightgreen" points="243.25,-36 174,-36 174,0 243.25,0 243.25,-36"/>
<text text-anchor="middle" x="208.62" y="-12.95" font-family="Times New Roman,serif" font-size="14.00">Chapter 3</text>
</a>
</g>
</g>
<!-- Chapters&#45;&gt;Chapter 3 -->
<g id="edge4" class="edge">
<title>Chapters&#45;&gt;Chapter 3</title>
<path fill="none" stroke="black" d="M698.76,-77.3C692.18,-75.24 685.23,-73.34 678.62,-72 495.62,-34.89 439.24,-77.74 254.74,-36.35"/>
<polygon fill="black" stroke="black" points="255.56,-32.95 245.03,-34.11 253.99,-39.77 255.56,-32.95"/>
</g>
<!-- Chapter 4 -->
<g id="node9" class="node">
<title>Chapter 4</title>
<g id="a_node9"><a xlink:href="https://www.ipcc.ch/report/ar6/wg3/chapter/chapter-4/" xlink:title="Chapter 4">
<polygon fill="lightgreen" stroke="lightgreen" points="330.25,-36 261,-36 261,0 330.25,0 330.25,-36"/>
<text text-anchor="middle" x="295.62" y="-12.95" font-family="Times New Roman,serif" font-size="14.00">Chapter 4</text>
</a>
</g>
</g>
<!-- Chapters&#45;&gt;Chapter 4 -->
<g id="edge5" class="edge">
<title>Chapters&#45;&gt;Chapter 4</title>
<path fill="none" stroke="black" d="M698.46,-77.32C691.96,-75.29 685.13,-73.39 678.62,-72 533.51,-40.96 488.3,-70.8 341.33,-36.31"/>
<polygon fill="black" stroke="black" points="342.58,-33.01 332.04,-34.07 340.94,-39.81 342.58,-33.01"/>
</g>
<!-- Chapter 5 -->
<g id="node10" class="node">
<title>Chapter 5</title>
<g id="a_node10"><a xlink:href="https://www.ipcc.ch/report/ar6/wg3/chapter/chapter-5/" xlink:title="Chapter 5">
<polygon fill="lightgreen" stroke="lightgreen" points="417.25,-36 348,-36 348,0 417.25,0 417.25,-36"/>
<text text-anchor="middle" x="382.62" y="-12.95" font-family="Times New Roman,serif" font-size="14.00">Chapter 5</text>
</a>
</g>
</g>
<!-- Chapters&#45;&gt;Chapter 5 -->
<g id="edge6" class="edge">
<title>Chapters&#45;&gt;Chapter 5</title>
<path fill="none" stroke="black" d="M698.42,-77.5C691.92,-75.46 685.1,-73.51 678.62,-72 571.57,-47.09 537.6,-63.91 428.73,-36.49"/>
<polygon fill="black" stroke="black" points="429.62,-33.11 419.06,-33.98 427.86,-39.88 429.62,-33.11"/>
</g>
<!-- Chapter 6 -->
<g id="node11" class="node">
<title>Chapter 6</title>
<g id="a_node11"><a xlink:href="https://www.ipcc.ch/report/ar6/wg3/chapter/chapter-6/" xlink:title="Chapter 6">
<polygon fill="lightgreen" stroke="lightgreen" points="504.25,-36 435,-36 435,0 504.25,0 504.25,-36"/>
<text text-anchor="middle" x="469.62" y="-12.95" font-family="Times New Roman,serif" font-size="14.00">Chapter 6</text>
</a>
</g>
</g>
<!-- Chapters&#45;&gt;Chapter 6 -->
<g id="edge7" class="edge">
<title>Chapters&#45;&gt;Chapter 6</title>
<path fill="none" stroke="black" d="M697.77,-77.7C691.45,-75.68 684.86,-73.69 678.62,-72 609.18,-53.17 586.93,-57.47 515.56,-36.65"/>
<polygon fill="black" stroke="black" points="516.69,-33.34 506.11,-33.82 514.69,-40.04 516.69,-33.34"/>
</g>
<!-- Chapter 7 -->
<g id="node12" class="node">
<title>Chapter 7</title>
<g id="a_node12"><a xlink:href="https://www.ipcc.ch/report/ar6/wg3/chapter/chapter-7/" xlink:title="Chapter 7">
<polygon fill="lightgreen" stroke="lightgreen" points="591.25,-36 522,-36 522,0 591.25,0 591.25,-36"/>
<text text-anchor="middle" x="556.62" y="-12.95" font-family="Times New Roman,serif" font-size="14.00">Chapter 7</text>
</a>
</g>
</g>
<!-- Chapters&#45;&gt;Chapter 7 -->
<g id="edge8" class="edge">
<title>Chapters&#45;&gt;Chapter 7</title>
<path fill="none" stroke="black" d="M700.32,-76.81C673.23,-65.91 633.15,-49.79 602.2,-37.34"/>
<polygon fill="black" stroke="black" points="603.66,-34.15 593.08,-33.66 601.05,-40.64 603.66,-34.15"/>
</g>
<!-- Chapter 8 -->
<g id="node13" class="node">
<title>Chapter 8</title>
<g id="a_node13"><a xlink:href="https://www.ipcc.ch/report/ar6/wg3/chapter/chapter-8/" xlink:title="Chapter 8">
<polygon fill="lightgreen" stroke="lightgreen" points="678.25,-36 609,-36 609,0 678.25,0 678.25,-36"/>
<text text-anchor="middle" x="643.62" y="-12.95" font-family="Times New Roman,serif" font-size="14.00">Chapter 8</text>
</a>
</g>
</g>
<!-- Chapters&#45;&gt;Chapter 8 -->
<g id="edge9" class="edge">
<title>Chapters&#45;&gt;Chapter 8</title>
<path fill="none" stroke="black" d="M711.32,-73.46C700.36,-64.65 686.4,-53.42 674.01,-43.45"/>
<polygon fill="black" stroke="black" points="676.49,-40.95 666.51,-37.41 672.1,-46.41 676.49,-40.95"/>
</g>
<!-- Chapter 9 -->
<g id="node14" class="node">
<title>Chapter 9</title>
<g id="a_node14"><a xlink:href="https://www.ipcc.ch/report/ar6/wg3/chapter/chapter-9/" xlink:title="Chapter 9">
<polygon fill="lightgreen" stroke="lightgreen" points="765.25,-36 696,-36 696,0 765.25,0 765.25,-36"/>
<text text-anchor="middle" x="730.62" y="-12.95" font-family="Times New Roman,serif" font-size="14.00">Chapter 9</text>
</a>
</g>
</g>
<!-- Chapters&#45;&gt;Chapter 9 -->
<g id="edge10" class="edge">
<title>Chapters&#45;&gt;Chapter 9</title>
<path fill="none" stroke="black" d="M730.62,-71.7C730.62,-64.41 730.62,-55.73 730.62,-47.54"/>
<polygon fill="black" stroke="black" points="734.13,-47.62 730.63,-37.62 727.13,-47.62 734.13,-47.62"/>
</g>
<!-- Chapter 10 -->
<g id="node15" class="node">
<title>Chapter 10</title>
<g id="a_node15"><a xlink:href="https://www.ipcc.ch/report/ar6/wg3/chapter/chapter-10/" xlink:title="Chapter 10">
<polygon fill="lightgreen" stroke="lightgreen" points="859.62,-36 783.62,-36 783.62,0 859.62,0 859.62,-36"/>
<text text-anchor="middle" x="821.62" y="-12.95" font-family="Times New Roman,serif" font-size="14.00">Chapter 10</text>
</a>
</g>
</g>
<!-- Chapters&#45;&gt;Chapter 10 -->
<g id="edge11" class="edge">
<title>Chapters&#45;&gt;Chapter 10</title>
<path fill="none" stroke="black" d="M750.37,-73.81C762.01,-64.86 777,-53.33 790.22,-43.16"/>
<polygon fill="black" stroke="black" points="792.04,-46.17 797.83,-37.3 787.77,-40.62 792.04,-46.17"/>
</g>
<!-- Chapter 11 -->
<g id="node16" class="node">
<title>Chapter 11</title>
<g id="a_node16"><a xlink:href="https://www.ipcc.ch/report/ar6/wg3/chapter/chapter-11/" xlink:title="Chapter 11">
<polygon fill="lightgreen" stroke="lightgreen" points="953.62,-36 877.62,-36 877.62,0 953.62,0 953.62,-36"/>
<text text-anchor="middle" x="915.62" y="-12.95" font-family="Times New Roman,serif" font-size="14.00">Chapter 11</text>
</a>
</g>
</g>
<!-- Chapters&#45;&gt;Chapter 11 -->
<g id="edge12" class="edge">
<title>Chapters&#45;&gt;Chapter 11</title>
<path fill="none" stroke="black" d="M762.01,-77.13C790.75,-66.25 833.75,-49.98 866.95,-37.42"/>
<polygon fill="black" stroke="black" points="867.82,-40.83 875.94,-34.02 865.34,-34.28 867.82,-40.83"/>
</g>
<!-- Chapter 12 -->
<g id="node17" class="node">
<title>Chapter 12</title>
<g id="a_node17"><a xlink:href="https://www.ipcc.ch/report/ar6/wg3/chapter/chapter-12/" xlink:title="Chapter 12">
<polygon fill="lightgreen" stroke="lightgreen" points="1047.62,-36 971.62,-36 971.62,0 1047.62,0 1047.62,-36"/>
<text text-anchor="middle" x="1009.62" y="-12.95" font-family="Times New Roman,serif" font-size="14.00">Chapter 12</text>
</a>
</g>
</g>
<!-- Chapters&#45;&gt;Chapter 12 -->
<g id="edge13" class="edge">
<title>Chapters&#45;&gt;Chapter 12</title>
<path fill="none" stroke="black" d="M763.54,-77.81C770.15,-75.74 777.08,-73.7 783.62,-72 858.79,-52.45 882.46,-57.37 960.46,-36.38"/>
<polygon fill="black" stroke="black" points="961.13,-39.82 969.84,-33.79 959.27,-33.07 961.13,-39.82"/>
</g>
<!-- Chapter 13 -->
<g id="node18" class="node">
<title>Chapter 13</title>
<g id="a_node18"><a xlink:href="https://www.ipcc.ch/report/ar6/wg3/chapter/chapter-13/" xlink:title="Chapter 13">
<polygon fill="lightgreen" stroke="lightgreen" points="1141.62,-36 1065.62,-36 1065.62,0 1141.62,0 1141.62,-36"/>
<text text-anchor="middle" x="1103.62" y="-12.95" font-family="Times New Roman,serif" font-size="14.00">Chapter 13</text>
</a>
</g>
</g>
<!-- Chapters&#45;&gt;Chapter 13 -->
<g id="edge14" class="edge">
<title>Chapters&#45;&gt;Chapter 13</title>
<path fill="none" stroke="black" d="M763.17,-77.55C769.87,-75.48 776.93,-73.5 783.62,-72 899.54,-45.99 935.62,-63.86 1054.38,-36.23"/>
<polygon fill="black" stroke="black" points="1054.98,-39.69 1063.89,-33.96 1053.35,-32.88 1054.98,-39.69"/>
</g>
<!-- Chapter 14 -->
<g id="node19" class="node">
<title>Chapter 14</title>
<g id="a_node19"><a xlink:href="https://www.ipcc.ch/report/ar6/wg3/chapter/chapter-14/" xlink:title="Chapter 14">
<polygon fill="lightgreen" stroke="lightgreen" points="1235.62,-36 1159.62,-36 1159.62,0 1235.62,0 1235.62,-36"/>
<text text-anchor="middle" x="1197.62" y="-12.95" font-family="Times New Roman,serif" font-size="14.00">Chapter 14</text>
</a>
</g>
</g>
<!-- Chapters&#45;&gt;Chapter 14 -->
<g id="edge15" class="edge">
<title>Chapters&#45;&gt;Chapter 14</title>
<path fill="none" stroke="black" d="M762.85,-77.46C769.64,-75.37 776.81,-73.41 783.62,-72 940.51,-39.53 988.62,-70.69 1148.2,-36.2"/>
<polygon fill="black" stroke="black" points="1148.9,-39.63 1157.91,-34.04 1147.39,-32.79 1148.9,-39.63"/>
</g>
<!-- Chapter 15 -->
<g id="node20" class="node">
<title>Chapter 15</title>
<g id="a_node20"><a xlink:href="https://www.ipcc.ch/report/ar6/wg3/chapter/chapter-15/" xlink:title="Chapter 15">
<polygon fill="lightgreen" stroke="lightgreen" points="1329.62,-36 1253.62,-36 1253.62,0 1329.62,0 1329.62,-36"/>
<text text-anchor="middle" x="1291.62" y="-12.95" font-family="Times New Roman,serif" font-size="14.00">Chapter 15</text>
</a>
</g>
</g>
<!-- Chapters&#45;&gt;Chapter 15 -->
<g id="edge16" class="edge">
<title>Chapters&#45;&gt;Chapter 15</title>
<path fill="none" stroke="black" d="M762.83,-77.36C769.62,-75.27 776.8,-73.34 783.62,-72 981.63,-33.06 1041.58,-77.67 1241.93,-36.23"/>
<polygon fill="black" stroke="black" points="1242.6,-39.66 1251.66,-34.16 1241.15,-32.82 1242.6,-39.66"/>
</g>
<!-- Chapter 16 -->
<g id="node21" class="node">
<title>Chapter 16</title>
<g id="a_node21"><a xlink:href="https://www.ipcc.ch/report/ar6/wg3/chapter/chapter-16/" xlink:title="Chapter 16">
<polygon fill="lightgreen" stroke="lightgreen" points="1423.62,-36 1347.62,-36 1347.62,0 1423.62,0 1423.62,-36"/>
<text text-anchor="middle" x="1385.62" y="-12.95" font-family="Times New Roman,serif" font-size="14.00">Chapter 16</text>
</a>
</g>
</g>
<!-- Chapters&#45;&gt;Chapter 16 -->
<g id="edge17" class="edge">
<title>Chapters&#45;&gt;Chapter 16</title>
<path fill="none" stroke="black" d="M762.53,-77.38C769.41,-75.26 776.69,-73.32 783.62,-72 1022.8,-26.6 1094.5,-84.73 1335.9,-36.21"/>
<polygon fill="black" stroke="black" points="1336.57,-39.64 1345.66,-34.2 1335.16,-32.78 1336.57,-39.64"/>
</g>
<!-- Chapter 17 -->
<g id="node22" class="node">
<title>Chapter 17</title>
<g id="a_node22"><a xlink:href="https://www.ipcc.ch/report/ar6/wg3/chapter/chapter-17/" xlink:title="Chapter 17">
<polygon fill="lightgreen" stroke="lightgreen" points="1517.62,-36 1441.62,-36 1441.62,0 1517.62,0 1517.62,-36"/>
<text text-anchor="middle" x="1479.62" y="-12.95" font-family="Times New Roman,serif" font-size="14.00">Chapter 17</text>
</a>
</g>
</g>
<!-- Chapters&#45;&gt;Chapter 17 -->
<g id="edge18" class="edge">
<title>Chapters&#45;&gt;Chapter 17</title>
<path fill="none" stroke="black" d="M762.52,-77.33C769.4,-75.22 776.69,-73.28 783.62,-72 1064.09,-20.12 1147.46,-91.88 1430.15,-36.14"/>
<polygon fill="black" stroke="black" points="1430.56,-39.62 1439.67,-34.22 1429.18,-32.76 1430.56,-39.62"/>
</g>
</g>
</svg>
