<?xml version="1.0" encoding="UTF-8" standalone="no"?>
<!DOCTYPE svg PUBLIC "-//W3C//DTD SVG 1.1//EN"
 "http://www.w3.org/Graphics/SVG/1.1/DTD/svg11.dtd">
<!-- Generated by graphviz version 12.2.1 (20241206.2353)
 -->
<!-- Title: IPCC_Structure Pages: 1 -->
<svg width="1160pt" height="296pt"
 viewBox="0.00 0.00 1159.80 296.00" xmlns="http://www.w3.org/2000/svg" xmlns:xlink="http://www.w3.org/1999/xlink">
<g id="graph0" class="graph" transform="scale(1 1) rotate(0) translate(4 292)">
<title>IPCC_Structure</title>
<polygon fill="white" stroke="none" points="-4,4 -4,-292 1155.8,-292 1155.8,4 -4,4"/>
<!-- IPCC -->
<g id="node1" class="node">
<title>IPCC</title>
<g id="a_node1"><a xlink:href="https://www.ipcc.ch/" xlink:title="IPCC">
<polygon fill="#0a192f" stroke="#0a192f" points="655.2,-288 453.6,-288 453.6,-216 655.2,-216 655.2,-288"/>
<text text-anchor="middle" x="554.4" y="-242.5" font-family="Times New Roman,serif" font-size="25.00" fill="white">IPCC</text>
</a>
</g>
</g>
<!-- Plenary -->
<g id="node2" class="node">
<title>Plenary</title>
<g id="a_node2"><a xlink:href="https://www.ipcc.ch/about/plenary/" xlink:title="Plenary">
<polygon fill="#172a45" stroke="#172a45" points="136.8,-180 0,-180 0,-108 136.8,-108 136.8,-180"/>
<text text-anchor="middle" x="68.4" y="-138.18" font-family="Times New Roman,serif" font-size="16.00" fill="white">Plenary</text>
</a>
</g>
</g>
<!-- IPCC&#45;&gt;Plenary -->
<g id="edge1" class="edge">
<title>IPCC:s&#45;&gt;Plenary:n</title>
<path fill="none" stroke="black" d="M554.4,-216C554.4,-216 151.81,-186.18 79.46,-180.82"/>
<polygon fill="black" stroke="black" points="80.14,-177.36 69.91,-180.11 79.62,-184.34 80.14,-177.36"/>
</g>
<!-- Bureau -->
<g id="node3" class="node">
<title>Bureau</title>
<g id="a_node3"><a xlink:href="https://www.ipcc.ch/about/bureau/" xlink:title="Bureau">
<polygon fill="#172a45" stroke="#172a45" points="291.8,-180 155,-180 155,-108 291.8,-108 291.8,-180"/>
<text text-anchor="middle" x="223.4" y="-138.18" font-family="Times New Roman,serif" font-size="16.00" fill="white">Bureau</text>
</a>
</g>
</g>
<!-- IPCC&#45;&gt;Bureau -->
<g id="edge2" class="edge">
<title>IPCC:s&#45;&gt;Bureau:n</title>
<path fill="none" stroke="black" d="M554.4,-216C554.4,-216 293,-187.57 234.79,-181.24"/>
<polygon fill="black" stroke="black" points="235.22,-177.77 224.9,-180.16 234.47,-184.72 235.22,-177.77"/>
</g>
<!-- Secretariat -->
<g id="node4" class="node">
<title>Secretariat</title>
<g id="a_node4"><a xlink:href="https://www.ipcc.ch/about/secretariat/" xlink:title="Secretariat">
<polygon fill="#172a45" stroke="#172a45" points="446.8,-180 310,-180 310,-108 446.8,-108 446.8,-180"/>
<text text-anchor="middle" x="378.4" y="-138.18" font-family="Times New Roman,serif" font-size="16.00" fill="white">Secretariat</text>
</a>
</g>
</g>
<!-- IPCC&#45;&gt;Secretariat -->
<g id="edge3" class="edge">
<title>IPCC:s&#45;&gt;Secretariat:n</title>
<path fill="none" stroke="black" d="M554.4,-216C554.4,-216 428.52,-190.25 389.68,-182.31"/>
<polygon fill="black" stroke="black" points="390.38,-178.88 379.88,-180.3 388.98,-185.74 390.38,-178.88"/>
</g>
<!-- Working Groups -->
<g id="node5" class="node">
<title>Working Groups</title>
<g id="a_node5"><a xlink:href="https://www.ipcc.ch/working-groups/" xlink:title="Working Groups">
<polygon fill="#172a45" stroke="#172a45" points="644.4,-180 464.4,-180 464.4,-108 644.4,-108 644.4,-180"/>
<text text-anchor="middle" x="554.4" y="-135.85" font-family="Times New Roman,serif" font-size="22.00" fill="white">Working Groups</text>
</a>
</g>
</g>
<!-- IPCC&#45;&gt;Working Groups -->
<g id="edge4" class="edge">
<title>IPCC:s&#45;&gt;Working Groups:n</title>
<path fill="none" stroke="black" d="M554.4,-216C554.4,-216 554.4,-201.94 554.4,-191.39"/>
<polygon fill="black" stroke="black" points="557.9,-191.51 554.4,-181.51 550.9,-191.51 557.9,-191.51"/>
</g>
<!-- Synthesis Report -->
<g id="node6" class="node">
<title>Synthesis Report</title>
<g id="a_node6"><a xlink:href="https://www.ipcc.ch/synthesis-report/" xlink:title="Synthesis Report">
<polygon fill="#172a45" stroke="#172a45" points="842.4,-180 662.4,-180 662.4,-108 842.4,-108 842.4,-180"/>
<text text-anchor="middle" x="752.4" y="-135.85" font-family="Times New Roman,serif" font-size="22.00" fill="white">Synthesis Report</text>
</a>
</g>
</g>
<!-- IPCC&#45;&gt;Synthesis Report -->
<g id="edge5" class="edge">
<title>IPCC:s&#45;&gt;Synthesis Report:n</title>
<path fill="none" stroke="black" d="M554.4,-216C554.4,-216 699.3,-189.65 741.19,-182.04"/>
<polygon fill="black" stroke="black" points="741.7,-185.5 750.91,-180.27 740.45,-178.62 741.7,-185.5"/>
</g>
<!-- TaskForce -->
<g id="node7" class="node">
<title>TaskForce</title>
<g id="a_node7"><a xlink:href="https://www.ipcc.ch/taskforce/" xlink:title="Task Force">
<polygon fill="#172a45" stroke="#172a45" points="996.8,-180 860,-180 860,-108 996.8,-108 996.8,-180"/>
<text text-anchor="middle" x="928.4" y="-138.18" font-family="Times New Roman,serif" font-size="16.00" fill="white">Task Force</text>
</a>
</g>
</g>
<!-- IPCC&#45;&gt;TaskForce -->
<g id="edge6" class="edge">
<title>IPCC:s&#45;&gt;TaskForce:n</title>
<path fill="none" stroke="black" d="M554.4,-216C554.4,-216 854.98,-187.07 917.21,-181.08"/>
<polygon fill="black" stroke="black" points="917.27,-184.59 926.89,-180.15 916.6,-177.62 917.27,-184.59"/>
</g>
<!-- Reports -->
<g id="node8" class="node">
<title>Reports</title>
<g id="a_node8"><a xlink:href="https://www.ipcc.ch/reports/" xlink:title="Reports">
<polygon fill="#172a45" stroke="#172a45" points="1151.8,-180 1015,-180 1015,-108 1151.8,-108 1151.8,-180"/>
<text text-anchor="middle" x="1083.4" y="-138.18" font-family="Times New Roman,serif" font-size="16.00" fill="white">Reports</text>
</a>
</g>
</g>
<!-- IPCC&#45;&gt;Reports -->
<g id="edge7" class="edge">
<title>IPCC:s&#45;&gt;Reports:n</title>
<path fill="none" stroke="black" d="M554.4,-216C554.4,-216 995.44,-185.99 1072.11,-180.77"/>
<polygon fill="black" stroke="black" points="1072.15,-184.27 1081.89,-180.1 1071.68,-177.29 1072.15,-184.27"/>
</g>
<!-- Working Group 1 -->
<g id="node9" class="node">
<title>Working Group 1</title>
<g id="a_node9"><a xlink:href="https://www.ipcc.ch/working-group/wg1/" xlink:title="Working Group 1">
<polygon fill="#32689a" stroke="#32689a" points="467.8,-72 331,-72 331,0 467.8,0 467.8,-72"/>
<text text-anchor="middle" x="399.4" y="-30.18" font-family="Times New Roman,serif" font-size="16.00" fill="white">Working Group 1</text>
</a>
</g>
</g>
<!-- Working Groups&#45;&gt;Working Group 1 -->
<g id="edge8" class="edge">
<title>Working Groups:s&#45;&gt;Working Group 1:n</title>
<path fill="none" stroke="black" d="M554.4,-108C554.4,-108 446.09,-82.84 410.55,-74.59"/>
<polygon fill="black" stroke="black" points="411.41,-71.2 400.87,-72.34 409.82,-78.01 411.41,-71.2"/>
</g>
<!-- Working Group 2 -->
<g id="node10" class="node">
<title>Working Group 2</title>
<g id="a_node10"><a xlink:href="https://www.ipcc.ch/working-group/wg2/" xlink:title="Working Group 2">
<polygon fill="#32689a" stroke="#32689a" points="622.8,-72 486,-72 486,0 622.8,0 622.8,-72"/>
<text text-anchor="middle" x="554.4" y="-30.18" font-family="Times New Roman,serif" font-size="16.00" fill="white">Working Group 2</text>
</a>
</g>
</g>
<!-- Working Groups&#45;&gt;Working Group 2 -->
<g id="edge9" class="edge">
<title>Working Groups:s&#45;&gt;Working Group 2:n</title>
<path fill="none" stroke="black" d="M554.4,-108C554.4,-108 554.4,-93.94 554.4,-83.39"/>
<polygon fill="black" stroke="black" points="557.9,-83.51 554.4,-73.51 550.9,-83.51 557.9,-83.51"/>
</g>
<!-- Working Group 3 -->
<g id="node11" class="node">
<title>Working Group 3</title>
<g id="a_node11"><a xlink:href="https://www.ipcc.ch/working-group/wg3/" xlink:title="Working Group 3">
<polygon fill="#32689a" stroke="#32689a" points="777.8,-72 641,-72 641,0 777.8,0 777.8,-72"/>
<text text-anchor="middle" x="709.4" y="-30.18" font-family="Times New Roman,serif" font-size="16.00" fill="white">Working Group 3</text>
</a>
</g>
</g>
<!-- Working Groups&#45;&gt;Working Group 3 -->
<g id="edge10" class="edge">
<title>Working Groups:s&#45;&gt;Working Group 3:n</title>
<path fill="none" stroke="black" d="M554.4,-108C554.4,-108 662.71,-82.84 698.25,-74.59"/>
<polygon fill="black" stroke="black" points="698.98,-78.01 707.93,-72.34 697.39,-71.2 698.98,-78.01"/>
</g>
</g>
</svg>
