<?xml version="1.0" encoding="UTF-8" standalone="no"?>
<!DOCTYPE svg PUBLIC "-//W3C//DTD SVG 1.1//EN"
 "http://www.w3.org/Graphics/SVG/1.1/DTD/svg11.dtd">
<!-- Generated by graphviz version 12.2.1 (20241206.2353)
 -->
<!-- Title: IPCC_Structure Pages: 1 -->
<svg width="929pt" height="505pt"
 viewBox="0.00 0.00 929.00 504.80" xmlns="http://www.w3.org/2000/svg" xmlns:xlink="http://www.w3.org/1999/xlink">
<g id="graph0" class="graph" transform="scale(1 1) rotate(0) translate(4 500.8)">
<title>IPCC_Structure</title>
<polygon fill="white" stroke="none" points="-4,4 -4,-500.8 925,-500.8 925,4 -4,4"/>
<!-- IPCC -->
<g id="node1" class="node">
<title>IPCC</title>
<g id="a_node1"><a xlink:href="https://www.ipcc.ch/" xlink:title="IPCC">
<ellipse fill="lightblue" stroke="lightblue" cx="446" cy="-406.8" rx="90" ry="90"/>
<text text-anchor="middle" x="446" y="-401.75" font-family="Times New Roman,serif" font-size="14.00">IPCC</text>
</a>
</g>
</g>
<!-- Plenary -->
<g id="node2" class="node">
<title>Plenary</title>
<g id="a_node2"><a xlink:href="https://www.ipcc.ch/about/plenary/" xlink:title="Plenary">
<ellipse fill="lightgrey" stroke="lightgrey" cx="54" cy="-212.4" rx="54" ry="54"/>
<text text-anchor="middle" x="54" y="-207.35" font-family="Times New Roman,serif" font-size="14.00">Plenary</text>
</a>
</g>
</g>
<!-- IPCC&#45;&gt;Plenary -->
<g id="edge1" class="edge">
<title>IPCC:s&#45;&gt;Plenary:n</title>
<path fill="none" stroke="black" d="M446,-316.8C446,-316.8 117,-280.8 117,-280.8 117,-280.8 83.38,-273.77 65.26,-269.98"/>
<polygon fill="black" stroke="black" points="65.99,-266.56 55.48,-267.94 64.55,-273.41 65.99,-266.56"/>
</g>
<!-- Bureau -->
<g id="node3" class="node">
<title>Bureau</title>
<g id="a_node3"><a xlink:href="https://www.ipcc.ch/about/bureau/" xlink:title="Bureau">
<ellipse fill="lightgrey" stroke="lightgrey" cx="180" cy="-212.4" rx="54" ry="54"/>
<text text-anchor="middle" x="180" y="-207.35" font-family="Times New Roman,serif" font-size="14.00">Bureau</text>
</a>
</g>
</g>
<!-- IPCC&#45;&gt;Bureau -->
<g id="edge2" class="edge">
<title>IPCC:s&#45;&gt;Bureau:n</title>
<path fill="none" stroke="black" d="M446,-316.8C446,-316.8 243,-280.8 243,-280.8 243,-280.8 209.38,-273.77 191.26,-269.98"/>
<polygon fill="black" stroke="black" points="191.99,-266.56 181.48,-267.94 190.55,-273.41 191.99,-266.56"/>
</g>
<!-- Secretariat -->
<g id="node4" class="node">
<title>Secretariat</title>
<g id="a_node4"><a xlink:href="https://www.ipcc.ch/about/secretariat/" xlink:title="Secretariat">
<ellipse fill="lightgrey" stroke="lightgrey" cx="306" cy="-212.4" rx="54" ry="54"/>
<text text-anchor="middle" x="306" y="-207.35" font-family="Times New Roman,serif" font-size="14.00">Secretariat</text>
</a>
</g>
</g>
<!-- IPCC&#45;&gt;Secretariat -->
<g id="edge3" class="edge">
<title>IPCC:s&#45;&gt;Secretariat:n</title>
<path fill="none" stroke="black" d="M446,-316.8C446,-316.8 349.08,-282.76 316.52,-271.32"/>
<polygon fill="black" stroke="black" points="318.02,-268.14 307.43,-268.13 315.7,-274.74 318.02,-268.14"/>
</g>
<!-- Working Groups -->
<g id="node5" class="node">
<title>Working Groups</title>
<g id="a_node5"><a xlink:href="https://www.ipcc.ch/working-groups/" xlink:title="Working Groups">
<ellipse fill="lightgrey" stroke="lightgrey" cx="446" cy="-212.4" rx="68.4" ry="68.4"/>
<text text-anchor="middle" x="446" y="-207.35" font-family="Times New Roman,serif" font-size="14.00">Working Groups</text>
</a>
</g>
</g>
<!-- IPCC&#45;&gt;Working Groups -->
<g id="edge4" class="edge">
<title>IPCC:s&#45;&gt;Working Groups:n</title>
<path fill="none" stroke="black" d="M446,-316.8C446,-316.8 446,-302.74 446,-292.19"/>
<polygon fill="black" stroke="black" points="449.5,-292.31 446,-282.31 442.5,-292.31 449.5,-292.31"/>
</g>
<!-- Synthesis Report -->
<g id="node6" class="node">
<title>Synthesis Report</title>
<g id="a_node6"><a xlink:href="https://www.ipcc.ch/synthesis-report/" xlink:title="Synthesis Report">
<ellipse fill="lightgrey" stroke="lightgrey" cx="601" cy="-212.4" rx="68.4" ry="68.4"/>
<text text-anchor="middle" x="601" y="-207.35" font-family="Times New Roman,serif" font-size="14.00">Synthesis Report</text>
</a>
</g>
</g>
<!-- IPCC&#45;&gt;Synthesis Report -->
<g id="edge5" class="edge">
<title>IPCC:s&#45;&gt;Synthesis Report:n</title>
<path fill="none" stroke="black" d="M446,-316.8C446,-316.8 554.31,-291.64 589.85,-283.39"/>
<polygon fill="black" stroke="black" points="590.58,-286.81 599.53,-281.14 588.99,-280 590.58,-286.81"/>
</g>
<!-- TaskForce -->
<g id="node7" class="node">
<title>TaskForce</title>
<g id="a_node7"><a xlink:href="https://www.ipcc.ch/taskforce/" xlink:title="Task Force">
<ellipse fill="lightgrey" stroke="lightgrey" cx="741" cy="-212.4" rx="54" ry="54"/>
<text text-anchor="middle" x="741" y="-207.35" font-family="Times New Roman,serif" font-size="14.00">Task Force</text>
</a>
</g>
</g>
<!-- IPCC&#45;&gt;TaskForce -->
<g id="edge6" class="edge">
<title>IPCC:s&#45;&gt;TaskForce:n</title>
<path fill="none" stroke="black" d="M446,-316.8C446,-316.8 678,-280.8 678,-280.8 678,-280.8 711.62,-273.77 729.74,-269.98"/>
<polygon fill="black" stroke="black" points="730.45,-273.41 739.52,-267.94 729.01,-266.56 730.45,-273.41"/>
</g>
<!-- Reports -->
<g id="node8" class="node">
<title>Reports</title>
<g id="a_node8"><a xlink:href="https://www.ipcc.ch/reports/" xlink:title="Reports">
<ellipse fill="lightgrey" stroke="lightgrey" cx="867" cy="-212.4" rx="54" ry="54"/>
<text text-anchor="middle" x="867" y="-207.35" font-family="Times New Roman,serif" font-size="14.00">Reports</text>
</a>
</g>
</g>
<!-- IPCC&#45;&gt;Reports -->
<g id="edge7" class="edge">
<title>IPCC:s&#45;&gt;Reports:n</title>
<path fill="none" stroke="black" d="M446,-316.8C446,-316.8 804,-280.8 804,-280.8 804,-280.8 837.62,-273.77 855.74,-269.98"/>
<polygon fill="black" stroke="black" points="856.45,-273.41 865.52,-267.94 855.01,-266.56 856.45,-273.41"/>
</g>
<!-- Working Group 1 -->
<g id="node9" class="node">
<title>Working Group 1</title>
<g id="a_node9"><a xlink:href="https://www.ipcc.ch/working-group/wg1/" xlink:title="Working Group 1">
<ellipse fill="lightgrey" stroke="lightgrey" cx="320" cy="-54" rx="54" ry="54"/>
<text text-anchor="middle" x="320" y="-48.95" font-family="Times New Roman,serif" font-size="14.00">Working Group 1</text>
</a>
</g>
</g>
<!-- Working Groups&#45;&gt;Working Group 1 -->
<g id="edge8" class="edge">
<title>Working Groups:s&#45;&gt;Working Group 1:n</title>
<path fill="none" stroke="black" d="M446,-144C446,-144 361.21,-119.78 330.74,-111.07"/>
<polygon fill="black" stroke="black" points="332.03,-107.8 321.46,-108.42 330.11,-114.53 332.03,-107.8"/>
</g>
<!-- Working Group 2 -->
<g id="node10" class="node">
<title>Working Group 2</title>
<g id="a_node10"><a xlink:href="https://www.ipcc.ch/working-group/wg2/" xlink:title="Working Group 2">
<ellipse fill="lightgrey" stroke="lightgrey" cx="446" cy="-54" rx="54" ry="54"/>
<text text-anchor="middle" x="446" y="-48.95" font-family="Times New Roman,serif" font-size="14.00">Working Group 2</text>
</a>
</g>
</g>
<!-- Working Groups&#45;&gt;Working Group 2 -->
<g id="edge9" class="edge">
<title>Working Groups:s&#45;&gt;Working Group 2:n</title>
<path fill="none" stroke="black" d="M446,-144C446,-144 446,-129.94 446,-119.39"/>
<polygon fill="black" stroke="black" points="449.5,-119.51 446,-109.51 442.5,-119.51 449.5,-119.51"/>
</g>
<!-- Working Group 3 -->
<g id="node11" class="node">
<title>Working Group 3</title>
<g id="a_node11"><a xlink:href="https://www.ipcc.ch/working-group/wg3/" xlink:title="Working Group 3">
<ellipse fill="lightgrey" stroke="lightgrey" cx="572" cy="-54" rx="54" ry="54"/>
<text text-anchor="middle" x="572" y="-48.95" font-family="Times New Roman,serif" font-size="14.00">Working Group 3</text>
</a>
</g>
</g>
<!-- Working Groups&#45;&gt;Working Group 3 -->
<g id="edge10" class="edge">
<title>Working Groups:s&#45;&gt;Working Group 3:n</title>
<path fill="none" stroke="black" d="M446,-144C446,-144 530.79,-119.78 561.26,-111.07"/>
<polygon fill="black" stroke="black" points="561.89,-114.53 570.54,-108.42 559.97,-107.8 561.89,-114.53"/>
</g>
</g>
</svg>
