<?xml version="1.0" encoding="UTF-8" standalone="no"?>
<!DOCTYPE svg PUBLIC "-//W3C//DTD SVG 1.1//EN"
 "http://www.w3.org/Graphics/SVG/1.1/DTD/svg11.dtd">
<!-- Generated by graphviz version 12.2.1 (20241206.2353)
 -->
<!-- Title: IPCC_Structure Pages: 1 -->
<svg width="1039pt" height="116pt"
 viewBox="0.00 0.00 1038.65 116.00" xmlns="http://www.w3.org/2000/svg" xmlns:xlink="http://www.w3.org/1999/xlink">
<g id="graph0" class="graph" transform="scale(1 1) rotate(0) translate(4 112)">
<title>IPCC_Structure</title>
<polygon fill="white" stroke="none" points="-4,4 -4,-112 1034.65,-112 1034.65,4 -4,4"/>
<!-- IPCC -->
<g id="node1" class="node">
<title>IPCC</title>
<g id="a_node1"><a xlink:href="https://www.ipcc.ch/" xlink:title="IPCC">
<ellipse fill="lightyellow" stroke="lightyellow" cx="468.07" cy="-90" rx="31.39" ry="18"/>
<text text-anchor="middle" x="468.07" y="-84.95" font-family="Times New Roman,serif" font-size="14.00">IPCC</text>
</a>
</g>
</g>
<!-- Plenary -->
<g id="node2" class="node">
<title>Plenary</title>
<g id="a_node2"><a xlink:href="https://www.ipcc.ch/about/plenary/" xlink:title="Plenary">
<ellipse fill="lightgrey" stroke="lightgrey" cx="39.07" cy="-18" rx="39.07" ry="18"/>
<text text-anchor="middle" x="39.07" y="-12.95" font-family="Times New Roman,serif" font-size="14.00">Plenary</text>
</a>
</g>
</g>
<!-- IPCC&#45;&gt;Plenary -->
<g id="edge1" class="edge">
<title>IPCC&#45;&gt;Plenary</title>
<path fill="none" stroke="black" d="M436.8,-86.8C371.2,-81.72 214.72,-67.14 87.07,-36 84.46,-35.36 81.79,-34.64 79.12,-33.86"/>
<polygon fill="black" stroke="black" points="80.26,-30.55 69.67,-30.84 78.14,-37.22 80.26,-30.55"/>
</g>
<!-- Bureau -->
<g id="node3" class="node">
<title>Bureau</title>
<g id="a_node3"><a xlink:href="https://www.ipcc.ch/about/bureau/" xlink:title="Bureau">
<ellipse fill="lightgrey" stroke="lightgrey" cx="134.07" cy="-18" rx="37.53" ry="18"/>
<text text-anchor="middle" x="134.07" y="-12.95" font-family="Times New Roman,serif" font-size="14.00">Bureau</text>
</a>
</g>
</g>
<!-- IPCC&#45;&gt;Bureau -->
<g id="edge2" class="edge">
<title>IPCC&#45;&gt;Bureau</title>
<path fill="none" stroke="black" d="M437.54,-85.05C384.69,-77.83 273,-60.93 181.07,-36 178.52,-35.31 175.92,-34.54 173.31,-33.73"/>
<polygon fill="black" stroke="black" points="174.69,-30.5 164.1,-30.67 172.48,-37.14 174.69,-30.5"/>
</g>
<!-- Secretariat -->
<g id="node4" class="node">
<title>Secretariat</title>
<g id="a_node4"><a xlink:href="https://www.ipcc.ch/about/secretariat/" xlink:title="Secretariat">
<ellipse fill="lightgrey" stroke="lightgrey" cx="240.07" cy="-18" rx="50.33" ry="18"/>
<text text-anchor="middle" x="240.07" y="-12.95" font-family="Times New Roman,serif" font-size="14.00">Secretariat</text>
</a>
</g>
</g>
<!-- IPCC&#45;&gt;Secretariat -->
<g id="edge3" class="edge">
<title>IPCC&#45;&gt;Secretariat</title>
<path fill="none" stroke="black" d="M441.02,-80.7C403.34,-69.13 334.47,-47.98 287.99,-33.71"/>
<polygon fill="black" stroke="black" points="289.3,-30.45 278.72,-30.87 287.25,-37.15 289.3,-30.45"/>
</g>
<!-- WG1 -->
<g id="node5" class="node">
<title>WG1</title>
<g id="a_node5"><a xlink:href="https://www.ipcc.ch/working-group/wg1/" xlink:title="Working Group I">
<ellipse fill="lightgrey" stroke="lightgrey" cx="383.07" cy="-18" rx="74.89" ry="18"/>
<text text-anchor="middle" x="383.07" y="-12.95" font-family="Times New Roman,serif" font-size="14.00">Working Group I</text>
</a>
</g>
</g>
<!-- IPCC&#45;&gt;WG1 -->
<g id="edge4" class="edge">
<title>IPCC&#45;&gt;WG1</title>
<path fill="none" stroke="black" d="M450.87,-74.83C439.67,-65.62 424.8,-53.37 411.83,-42.69"/>
<polygon fill="black" stroke="black" points="414.34,-40.22 404.4,-36.57 409.89,-45.63 414.34,-40.22"/>
</g>
<!-- WG2 -->
<g id="node6" class="node">
<title>WG2</title>
<g id="a_node6"><a xlink:href="https://www.ipcc.ch/working-group/wg2/" xlink:title="Working Group II">
<ellipse fill="lightgrey" stroke="lightgrey" cx="554.07" cy="-18" rx="77.97" ry="18"/>
<text text-anchor="middle" x="554.07" y="-12.95" font-family="Times New Roman,serif" font-size="14.00">Working Group II</text>
</a>
</g>
</g>
<!-- IPCC&#45;&gt;WG2 -->
<g id="edge5" class="edge">
<title>IPCC&#45;&gt;WG2</title>
<path fill="none" stroke="black" d="M485.47,-74.83C496.8,-65.62 511.85,-53.37 524.96,-42.69"/>
<polygon fill="black" stroke="black" points="526.95,-45.59 532.49,-36.56 522.53,-40.16 526.95,-45.59"/>
</g>
<!-- WG3 -->
<g id="node7" class="node">
<title>WG3</title>
<g id="a_node7"><a xlink:href="https://www.ipcc.ch/working-group/wg3/" xlink:title="Working Group III">
<ellipse fill="lightgrey" stroke="lightgrey" cx="731.07" cy="-18" rx="81.04" ry="18"/>
<text text-anchor="middle" x="731.07" y="-12.95" font-family="Times New Roman,serif" font-size="14.00">Working Group III</text>
</a>
</g>
</g>
<!-- IPCC&#45;&gt;WG3 -->
<g id="edge6" class="edge">
<title>IPCC&#45;&gt;WG3</title>
<path fill="none" stroke="black" d="M496.21,-81.51C537.37,-70.55 615.02,-49.89 669.75,-35.32"/>
<polygon fill="black" stroke="black" points="670.48,-38.75 679.25,-32.79 668.68,-31.98 670.48,-38.75"/>
</g>
<!-- TaskForce -->
<g id="node8" class="node">
<title>TaskForce</title>
<g id="a_node8"><a xlink:href="https://www.ipcc.ch/taskforce/" xlink:title="Task Force">
<ellipse fill="lightgrey" stroke="lightgrey" cx="882.07" cy="-18" rx="51.86" ry="18"/>
<text text-anchor="middle" x="882.07" y="-12.95" font-family="Times New Roman,serif" font-size="14.00">Task Force</text>
</a>
</g>
</g>
<!-- IPCC&#45;&gt;TaskForce -->
<g id="edge7" class="edge">
<title>IPCC&#45;&gt;TaskForce</title>
<path fill="none" stroke="black" d="M498.99,-85.65C560.67,-78.69 703.19,-61.18 821.07,-36 824.84,-35.19 828.72,-34.29 832.61,-33.33"/>
<polygon fill="black" stroke="black" points="833.25,-36.78 842.06,-30.89 831.5,-30 833.25,-36.78"/>
</g>
<!-- Reports -->
<g id="node9" class="node">
<title>Reports</title>
<g id="a_node9"><a xlink:href="https://www.ipcc.ch/reports/" xlink:title="Reports">
<ellipse fill="lightgrey" stroke="lightgrey" cx="991.07" cy="-18" rx="39.58" ry="18"/>
<text text-anchor="middle" x="991.07" y="-12.95" font-family="Times New Roman,serif" font-size="14.00">Reports</text>
</a>
</g>
</g>
<!-- IPCC&#45;&gt;Reports -->
<g id="edge8" class="edge">
<title>IPCC&#45;&gt;Reports</title>
<path fill="none" stroke="black" d="M499.61,-87.97C576.41,-84.94 778.9,-73.7 943.07,-36 945.69,-35.4 948.36,-34.7 951.03,-33.94"/>
<polygon fill="black" stroke="black" points="952,-37.3 960.49,-30.97 949.9,-30.62 952,-37.3"/>
</g>
</g>
</svg>
