<?xml version="1.0" encoding="UTF-8" standalone="no"?>
<!DOCTYPE svg PUBLIC "-//W3C//DTD SVG 1.1//EN"
 "http://www.w3.org/Graphics/SVG/1.1/DTD/svg11.dtd">
<!-- Generated by graphviz version 12.2.1 (20241206.2353)
 -->
<!-- Title: IPCC_Structure Pages: 1 -->
<svg width="1084pt" height="361pt"
 viewBox="0.00 0.00 1084.00 360.80" xmlns="http://www.w3.org/2000/svg" xmlns:xlink="http://www.w3.org/1999/xlink">
<g id="graph0" class="graph" transform="scale(1 1) rotate(0) translate(4 356.8)">
<title>IPCC_Structure</title>
<polygon fill="white" stroke="none" points="-4,4 -4,-356.8 1080,-356.8 1080,4 -4,4"/>
<!-- IPCC -->
<g id="node1" class="node">
<title>IPCC</title>
<g id="a_node1"><a xlink:href="https://www.ipcc.ch/" xlink:title="IPCC">
<ellipse fill="lightblue" stroke="lightblue" cx="523" cy="-262.8" rx="90" ry="90"/>
<text text-anchor="middle" x="523" y="-257.75" font-family="Times New Roman,serif" font-size="14.00">IPCC</text>
</a>
</g>
</g>
<!-- Plenary -->
<g id="node2" class="node">
<title>Plenary</title>
<g id="a_node2"><a xlink:href="https://www.ipcc.ch/about/plenary/" xlink:title="Plenary">
<ellipse fill="lightgrey" stroke="lightgrey" cx="54" cy="-68.4" rx="54" ry="54"/>
<text text-anchor="middle" x="54" y="-63.35" font-family="Times New Roman,serif" font-size="14.00">Plenary</text>
</a>
</g>
</g>
<!-- IPCC&#45;&gt;Plenary -->
<g id="edge1" class="edge">
<title>IPCC&#45;&gt;Plenary</title>
<path fill="none" stroke="black" d="M433.9,-248.11C347.71,-231.83 215.95,-198.69 117,-136.8 109.19,-131.92 101.71,-125.83 94.81,-119.32"/>
<polygon fill="black" stroke="black" points="97.61,-117.17 88.06,-112.6 92.68,-122.13 97.61,-117.17"/>
</g>
<!-- Bureau -->
<g id="node3" class="node">
<title>Bureau</title>
<g id="a_node3"><a xlink:href="https://www.ipcc.ch/about/bureau/" xlink:title="Bureau">
<ellipse fill="lightgrey" stroke="lightgrey" cx="180" cy="-68.4" rx="54" ry="54"/>
<text text-anchor="middle" x="180" y="-63.35" font-family="Times New Roman,serif" font-size="14.00">Bureau</text>
</a>
</g>
</g>
<!-- IPCC&#45;&gt;Bureau -->
<g id="edge2" class="edge">
<title>IPCC&#45;&gt;Bureau</title>
<path fill="none" stroke="black" d="M437.5,-233.8C379.5,-212.45 302.81,-179.46 243,-136.8 235.6,-131.52 228.38,-125.27 221.62,-118.73"/>
<polygon fill="black" stroke="black" points="224.52,-116.68 215,-112.04 219.55,-121.61 224.52,-116.68"/>
</g>
<!-- Secretariat -->
<g id="node4" class="node">
<title>Secretariat</title>
<g id="a_node4"><a xlink:href="https://www.ipcc.ch/about/secretariat/" xlink:title="Secretariat">
<ellipse fill="lightgrey" stroke="lightgrey" cx="306" cy="-68.4" rx="54" ry="54"/>
<text text-anchor="middle" x="306" y="-63.35" font-family="Times New Roman,serif" font-size="14.00">Secretariat</text>
</a>
</g>
</g>
<!-- IPCC&#45;&gt;Secretariat -->
<g id="edge3" class="edge">
<title>IPCC&#45;&gt;Secretariat</title>
<path fill="none" stroke="black" d="M451.91,-207.45C425.23,-186.19 395.07,-161.11 369,-136.8 362.58,-130.81 356.01,-124.29 349.66,-117.75"/>
<polygon fill="black" stroke="black" points="352.25,-115.39 342.81,-110.58 347.19,-120.23 352.25,-115.39"/>
</g>
<!-- WG1 -->
<g id="node5" class="node">
<title>WG1</title>
<g id="a_node5"><a xlink:href="https://www.ipcc.ch/working-group/wg1/" xlink:title="Working Group I">
<ellipse fill="lightgrey" stroke="lightgrey" cx="446" cy="-68.4" rx="68.4" ry="68.4"/>
<text text-anchor="middle" x="446" y="-63.35" font-family="Times New Roman,serif" font-size="14.00">Working Group I</text>
</a>
</g>
</g>
<!-- IPCC&#45;&gt;WG1 -->
<g id="edge4" class="edge">
<title>IPCC&#45;&gt;WG1</title>
<path fill="none" stroke="black" d="M489.79,-178.81C485.02,-166.9 480.14,-154.71 475.45,-142.99"/>
<polygon fill="black" stroke="black" points="478.74,-141.78 471.77,-133.79 472.24,-144.38 478.74,-141.78"/>
</g>
<!-- WG2 -->
<g id="node6" class="node">
<title>WG2</title>
<g id="a_node6"><a xlink:href="https://www.ipcc.ch/working-group/wg2/" xlink:title="Working Group II">
<ellipse fill="lightgrey" stroke="lightgrey" cx="601" cy="-68.4" rx="68.4" ry="68.4"/>
<text text-anchor="middle" x="601" y="-63.35" font-family="Times New Roman,serif" font-size="14.00">Working Group II</text>
</a>
</g>
</g>
<!-- IPCC&#45;&gt;WG2 -->
<g id="edge5" class="edge">
<title>IPCC&#45;&gt;WG2</title>
<path fill="none" stroke="black" d="M556.64,-178.81C561.47,-166.9 566.42,-154.71 571.17,-142.99"/>
<polygon fill="black" stroke="black" points="574.38,-144.37 574.9,-133.79 567.9,-141.74 574.38,-144.37"/>
</g>
<!-- WG3 -->
<g id="node7" class="node">
<title>WG3</title>
<g id="a_node7"><a xlink:href="https://www.ipcc.ch/working-group/wg3/" xlink:title="Working Group III">
<ellipse fill="lightgrey" stroke="lightgrey" cx="756" cy="-68.4" rx="68.4" ry="68.4"/>
<text text-anchor="middle" x="756" y="-63.35" font-family="Times New Roman,serif" font-size="14.00">Working Group III</text>
</a>
</g>
</g>
<!-- IPCC&#45;&gt;WG3 -->
<g id="edge6" class="edge">
<title>IPCC&#45;&gt;WG3</title>
<path fill="none" stroke="black" d="M593.24,-205.99C619.94,-184.55 650.53,-159.73 678,-136.8 683.95,-131.83 690.12,-126.62 696.26,-121.38"/>
<polygon fill="black" stroke="black" points="698.13,-124.39 703.45,-115.23 693.58,-119.07 698.13,-124.39"/>
</g>
<!-- TaskForce -->
<g id="node8" class="node">
<title>TaskForce</title>
<g id="a_node8"><a xlink:href="https://www.ipcc.ch/taskforce/" xlink:title="Task Force">
<ellipse fill="lightgrey" stroke="lightgrey" cx="896" cy="-68.4" rx="54" ry="54"/>
<text text-anchor="middle" x="896" y="-63.35" font-family="Times New Roman,serif" font-size="14.00">Task Force</text>
</a>
</g>
</g>
<!-- IPCC&#45;&gt;TaskForce -->
<g id="edge7" class="edge">
<title>IPCC&#45;&gt;TaskForce</title>
<path fill="none" stroke="black" d="M609.86,-237.99C674.93,-217.59 764.21,-183.98 833,-136.8 840.59,-131.59 847.96,-125.32 854.81,-118.73"/>
<polygon fill="black" stroke="black" points="856.96,-121.52 861.53,-111.96 852,-116.59 856.96,-121.52"/>
</g>
<!-- Reports -->
<g id="node9" class="node">
<title>Reports</title>
<g id="a_node9"><a xlink:href="https://www.ipcc.ch/reports/" xlink:title="Reports">
<ellipse fill="lightgrey" stroke="lightgrey" cx="1022" cy="-68.4" rx="54" ry="54"/>
<text text-anchor="middle" x="1022" y="-63.35" font-family="Times New Roman,serif" font-size="14.00">Reports</text>
</a>
</g>
</g>
<!-- IPCC&#45;&gt;Reports -->
<g id="edge8" class="edge">
<title>IPCC&#45;&gt;Reports</title>
<path fill="none" stroke="black" d="M612.6,-250.48C704.95,-235.66 850.36,-203.28 959,-136.8 966.86,-131.99 974.36,-125.94 981.28,-119.46"/>
<polygon fill="black" stroke="black" points="983.4,-122.28 988.04,-112.75 978.47,-117.31 983.4,-122.28"/>
</g>
</g>
</svg>
