<?xml version="1.0" encoding="UTF-8" standalone="no"?>
<!DOCTYPE svg PUBLIC "-//W3C//DTD SVG 1.1//EN"
 "http://www.w3.org/Graphics/SVG/1.1/DTD/svg11.dtd">
<!-- Generated by graphviz version 12.2.1 (20241206.2353)
 -->
<!-- Title: AR6_WGII Pages: 1 -->
<svg width="3231pt" height="188pt"
 viewBox="0.00 0.00 3230.57 188.00" xmlns="http://www.w3.org/2000/svg" xmlns:xlink="http://www.w3.org/1999/xlink">
<g id="graph0" class="graph" transform="scale(1 1) rotate(0) translate(4 184)">
<title>AR6_WGII</title>
<polygon fill="white" stroke="none" points="-4,4 -4,-184 3226.57,-184 3226.57,4 -4,4"/>
<!-- AR6 -->
<g id="node1" class="node">
<title>AR6</title>
<g id="a_node1"><a xlink:href="https://www.ipcc.ch/report/ar6/wg2/" xlink:title="AR6 WGII">
<ellipse fill="lightblue" stroke="lightblue" cx="953.26" cy="-162" rx="52.38" ry="18"/>
<text text-anchor="middle" x="953.26" y="-156.95" font-family="Times New Roman,serif" font-size="14.00">AR6 WGII</text>
</a>
</g>
</g>
<!-- SPM -->
<g id="node2" class="node">
<title>SPM</title>
<g id="a_node2"><a xlink:href="https://www.ipcc.ch/report/ar6/wg2/chapter/summary-for-policymakers/" xlink:title="Summary for Policymakers">
<ellipse fill="lightgrey" stroke="lightgrey" cx="577.26" cy="-90" rx="114.3" ry="18"/>
<text text-anchor="middle" x="577.26" y="-84.95" font-family="Times New Roman,serif" font-size="14.00">Summary for Policymakers</text>
</a>
</g>
</g>
<!-- AR6&#45;&gt;SPM -->
<g id="edge26" class="edge">
<title>AR6&#45;&gt;SPM</title>
<path fill="none" stroke="black" d="M907.9,-152.56C846.65,-141.15 736.4,-120.63 660.15,-106.43"/>
<polygon fill="black" stroke="black" points="661.11,-103.05 650.64,-104.66 659.83,-109.93 661.11,-103.05"/>
</g>
<!-- TS -->
<g id="node3" class="node">
<title>TS</title>
<g id="a_node3"><a xlink:href="https://www.ipcc.ch/report/ar6/wg2/chapter/technical-summary/" xlink:title="Technical Summary">
<ellipse fill="lightgrey" stroke="lightgrey" cx="795.26" cy="-90" rx="86.15" ry="18"/>
<text text-anchor="middle" x="795.26" y="-84.95" font-family="Times New Roman,serif" font-size="14.00">Technical Summary</text>
</a>
</g>
</g>
<!-- AR6&#45;&gt;TS -->
<g id="edge27" class="edge">
<title>AR6&#45;&gt;TS</title>
<path fill="none" stroke="black" d="M922.04,-147.17C898.96,-136.94 867.16,-122.86 841.19,-111.35"/>
<polygon fill="black" stroke="black" points="842.76,-108.22 832.2,-107.37 839.93,-114.62 842.76,-108.22"/>
</g>
<!-- FR -->
<g id="node4" class="node">
<title>FR</title>
<g id="a_node4"><a xlink:href="https://www.ipcc.ch/report/ar6/wg2/" xlink:title="Full Report">
<ellipse fill="lightgrey" stroke="lightgrey" cx="953.26" cy="-90" rx="53.4" ry="18"/>
<text text-anchor="middle" x="953.26" y="-84.95" font-family="Times New Roman,serif" font-size="14.00">Full Report</text>
</a>
</g>
</g>
<!-- AR6&#45;&gt;FR -->
<g id="edge28" class="edge">
<title>AR6&#45;&gt;FR</title>
<path fill="none" stroke="black" d="M953.26,-143.7C953.26,-136.41 953.26,-127.73 953.26,-119.54"/>
<polygon fill="black" stroke="black" points="956.76,-119.62 953.26,-109.62 949.76,-119.62 956.76,-119.62"/>
</g>
<!-- CP -->
<g id="node5" class="node">
<title>CP</title>
<g id="a_node5"><a xlink:href="https://www.ipcc.ch/report/ar6/wg2/" xlink:title="Chapters">
<ellipse fill="lightyellow" stroke="lightyellow" cx="1068.26" cy="-90" rx="43.67" ry="18"/>
<text text-anchor="middle" x="1068.26" y="-84.95" font-family="Times New Roman,serif" font-size="14.00">Chapters</text>
</a>
</g>
</g>
<!-- AR6&#45;&gt;CP -->
<g id="edge29" class="edge">
<title>AR6&#45;&gt;CP</title>
<path fill="none" stroke="black" d="M978.21,-145.81C994.82,-135.7 1016.83,-122.3 1034.94,-111.28"/>
<polygon fill="black" stroke="black" points="1036.52,-114.42 1043.24,-106.23 1032.88,-108.44 1036.52,-114.42"/>
</g>
<!-- CCP -->
<g id="node6" class="node">
<title>CCP</title>
<g id="a_node6"><a xlink:href="https://www.ipcc.ch/report/ar6/wg2/" xlink:title="Cross Chapters">
<ellipse fill="lightgreen" stroke="lightgreen" cx="2587.26" cy="-90" rx="67.22" ry="18"/>
<text text-anchor="middle" x="2587.26" y="-84.95" font-family="Times New Roman,serif" font-size="14.00">Cross Chapters</text>
</a>
</g>
</g>
<!-- AR6&#45;&gt;CCP -->
<g id="edge30" class="edge">
<title>AR6&#45;&gt;CCP</title>
<path fill="none" stroke="black" d="M1005.31,-158.77C1242.9,-148.59 2224.96,-106.52 2509.61,-94.33"/>
<polygon fill="black" stroke="black" points="2509.69,-97.83 2519.53,-93.9 2509.39,-90.83 2509.69,-97.83"/>
</g>
<!-- CP1 -->
<g id="node7" class="node">
<title>CP1</title>
<g id="a_node7"><a xlink:href="https://www.ipcc.ch/report/ar6/wg2/chapter/chapter-1/" xlink:title="Chapter 1">
<ellipse fill="lightcoral" stroke="lightcoral" cx="47.26" cy="-18" rx="47.26" ry="18"/>
<text text-anchor="middle" x="47.26" y="-12.95" font-family="Times New Roman,serif" font-size="14.00">Chapter 1</text>
</a>
</g>
</g>
<!-- CP&#45;&gt;CP1 -->
<g id="edge1" class="edge">
<title>CP&#45;&gt;CP1</title>
<path fill="none" stroke="black" d="M1036.38,-77.24C1029.5,-75.14 1022.2,-73.23 1015.26,-72 616.24,-1.47 503.98,-102.42 104.26,-36 100.42,-35.36 96.48,-34.55 92.55,-33.61"/>
<polygon fill="black" stroke="black" points="93.62,-30.28 83.06,-31.13 91.85,-37.05 93.62,-30.28"/>
</g>
<!-- CP2 -->
<g id="node8" class="node">
<title>CP2</title>
<g id="a_node8"><a xlink:href="https://www.ipcc.ch/report/ar6/wg2/chapter/chapter-2/" xlink:title="Chapter 2">
<ellipse fill="lightcoral" stroke="lightcoral" cx="160.26" cy="-18" rx="47.26" ry="18"/>
<text text-anchor="middle" x="160.26" y="-12.95" font-family="Times New Roman,serif" font-size="14.00">Chapter 2</text>
</a>
</g>
</g>
<!-- CP&#45;&gt;CP2 -->
<g id="edge2" class="edge">
<title>CP&#45;&gt;CP2</title>
<path fill="none" stroke="black" d="M1036.37,-77.27C1029.49,-75.17 1022.2,-73.25 1015.26,-72 665.82,-9.23 567.32,-95.18 217.26,-36 213.42,-35.35 209.49,-34.53 205.56,-33.59"/>
<polygon fill="black" stroke="black" points="206.63,-30.25 196.06,-31.1 204.85,-37.02 206.63,-30.25"/>
</g>
<!-- CP3 -->
<g id="node9" class="node">
<title>CP3</title>
<g id="a_node9"><a xlink:href="https://www.ipcc.ch/report/ar6/wg2/chapter/chapter-3/" xlink:title="Chapter 3">
<ellipse fill="lightcoral" stroke="lightcoral" cx="273.26" cy="-18" rx="47.26" ry="18"/>
<text text-anchor="middle" x="273.26" y="-12.95" font-family="Times New Roman,serif" font-size="14.00">Chapter 3</text>
</a>
</g>
</g>
<!-- CP&#45;&gt;CP3 -->
<g id="edge3" class="edge">
<title>CP&#45;&gt;CP3</title>
<path fill="none" stroke="black" d="M1036.36,-77.31C1029.49,-75.2 1022.2,-73.27 1015.26,-72 715.4,-16.99 630.67,-87.93 330.26,-36 326.43,-35.34 322.49,-34.5 318.56,-33.56"/>
<polygon fill="black" stroke="black" points="319.63,-30.22 309.07,-31.06 317.85,-36.99 319.63,-30.22"/>
</g>
<!-- CP4 -->
<g id="node10" class="node">
<title>CP4</title>
<g id="a_node10"><a xlink:href="https://www.ipcc.ch/report/ar6/wg2/chapter/chapter-4/" xlink:title="Chapter 4">
<ellipse fill="lightcoral" stroke="lightcoral" cx="386.26" cy="-18" rx="47.26" ry="18"/>
<text text-anchor="middle" x="386.26" y="-12.95" font-family="Times New Roman,serif" font-size="14.00">Chapter 4</text>
</a>
</g>
</g>
<!-- CP&#45;&gt;CP4 -->
<g id="edge4" class="edge">
<title>CP&#45;&gt;CP4</title>
<path fill="none" stroke="black" d="M1036.35,-77.37C1029.48,-75.25 1022.19,-73.31 1015.26,-72 764.95,-24.74 694.03,-80.69 443.26,-36 439.48,-35.33 435.6,-34.49 431.73,-33.56"/>
<polygon fill="black" stroke="black" points="432.95,-30.26 422.39,-31.09 431.16,-37.03 432.95,-30.26"/>
</g>
<!-- CP5 -->
<g id="node11" class="node">
<title>CP5</title>
<g id="a_node11"><a xlink:href="https://www.ipcc.ch/report/ar6/wg2/chapter/chapter-5/" xlink:title="Chapter 5">
<ellipse fill="lightcoral" stroke="lightcoral" cx="499.26" cy="-18" rx="47.26" ry="18"/>
<text text-anchor="middle" x="499.26" y="-12.95" font-family="Times New Roman,serif" font-size="14.00">Chapter 5</text>
</a>
</g>
</g>
<!-- CP&#45;&gt;CP5 -->
<g id="edge5" class="edge">
<title>CP&#45;&gt;CP5</title>
<path fill="none" stroke="black" d="M1036.06,-77.36C1029.26,-75.28 1022.08,-73.34 1015.26,-72 814.48,-32.48 757.43,-73.45 556.26,-36 552.49,-35.3 548.61,-34.44 544.74,-33.49"/>
<polygon fill="black" stroke="black" points="545.96,-30.2 535.4,-31 544.16,-36.96 545.96,-30.2"/>
</g>
<!-- CP6 -->
<g id="node12" class="node">
<title>CP6</title>
<g id="a_node12"><a xlink:href="https://www.ipcc.ch/report/ar6/wg2/chapter/chapter-6/" xlink:title="Chapter 6">
<ellipse fill="lightcoral" stroke="lightcoral" cx="612.26" cy="-18" rx="47.26" ry="18"/>
<text text-anchor="middle" x="612.26" y="-12.95" font-family="Times New Roman,serif" font-size="14.00">Chapter 6</text>
</a>
</g>
</g>
<!-- CP&#45;&gt;CP6 -->
<g id="edge6" class="edge">
<title>CP&#45;&gt;CP6</title>
<path fill="none" stroke="black" d="M1036.03,-77.49C1029.24,-75.4 1022.07,-73.43 1015.26,-72 863.95,-40.22 820.88,-66.22 669.26,-36 665.66,-35.28 661.97,-34.44 658.27,-33.51"/>
<polygon fill="black" stroke="black" points="659.3,-30.17 648.73,-30.95 657.48,-36.93 659.3,-30.17"/>
</g>
<!-- CP7 -->
<g id="node13" class="node">
<title>CP7</title>
<g id="a_node13"><a xlink:href="https://www.ipcc.ch/report/ar6/wg2/chapter/chapter-7/" xlink:title="Chapter 7">
<ellipse fill="lightcoral" stroke="lightcoral" cx="725.26" cy="-18" rx="47.26" ry="18"/>
<text text-anchor="middle" x="725.26" y="-12.95" font-family="Times New Roman,serif" font-size="14.00">Chapter 7</text>
</a>
</g>
</g>
<!-- CP&#45;&gt;CP7 -->
<g id="edge7" class="edge">
<title>CP&#45;&gt;CP7</title>
<path fill="none" stroke="black" d="M1035.69,-77.67C1028.98,-75.59 1021.93,-73.58 1015.26,-72 913.28,-47.92 884.48,-59.03 782.26,-36 778.73,-35.21 775.1,-34.31 771.47,-33.36"/>
<polygon fill="black" stroke="black" points="772.66,-30.06 762.09,-30.77 770.8,-36.8 772.66,-30.06"/>
</g>
<!-- CP8 -->
<g id="node14" class="node">
<title>CP8</title>
<g id="a_node14"><a xlink:href="https://www.ipcc.ch/report/ar6/wg2/chapter/chapter-8/" xlink:title="Chapter 8">
<ellipse fill="lightcoral" stroke="lightcoral" cx="838.26" cy="-18" rx="47.26" ry="18"/>
<text text-anchor="middle" x="838.26" y="-12.95" font-family="Times New Roman,serif" font-size="14.00">Chapter 8</text>
</a>
</g>
</g>
<!-- CP&#45;&gt;CP8 -->
<g id="edge8" class="edge">
<title>CP&#45;&gt;CP8</title>
<path fill="none" stroke="black" d="M1034.64,-78.11C1028.21,-76.06 1021.53,-73.95 1015.26,-72 1002.68,-68.1 933.41,-47.4 885.35,-33.05"/>
<polygon fill="black" stroke="black" points="886.58,-29.76 876,-30.26 884.58,-36.47 886.58,-29.76"/>
</g>
<!-- CP9 -->
<g id="node15" class="node">
<title>CP9</title>
<g id="a_node15"><a xlink:href="https://www.ipcc.ch/report/ar6/wg2/chapter/chapter-9/" xlink:title="Chapter 9">
<ellipse fill="lightcoral" stroke="lightcoral" cx="951.26" cy="-18" rx="47.26" ry="18"/>
<text text-anchor="middle" x="951.26" y="-12.95" font-family="Times New Roman,serif" font-size="14.00">Chapter 9</text>
</a>
</g>
</g>
<!-- CP&#45;&gt;CP9 -->
<g id="edge9" class="edge">
<title>CP&#45;&gt;CP9</title>
<path fill="none" stroke="black" d="M1044.3,-74.67C1027.41,-64.56 1004.54,-50.88 985.7,-39.61"/>
<polygon fill="black" stroke="black" points="987.67,-36.71 977.29,-34.57 984.07,-42.71 987.67,-36.71"/>
</g>
<!-- CP10 -->
<g id="node16" class="node">
<title>CP10</title>
<g id="a_node16"><a xlink:href="https://www.ipcc.ch/report/ar6/wg2/chapter/chapter-10/" xlink:title="Chapter 10">
<ellipse fill="lightcoral" stroke="lightcoral" cx="1068.26" cy="-18" rx="51.86" ry="18"/>
<text text-anchor="middle" x="1068.26" y="-12.95" font-family="Times New Roman,serif" font-size="14.00">Chapter 10</text>
</a>
</g>
</g>
<!-- CP&#45;&gt;CP10 -->
<g id="edge10" class="edge">
<title>CP&#45;&gt;CP10</title>
<path fill="none" stroke="black" d="M1068.26,-71.7C1068.26,-64.41 1068.26,-55.73 1068.26,-47.54"/>
<polygon fill="black" stroke="black" points="1071.76,-47.62 1068.26,-37.62 1064.76,-47.62 1071.76,-47.62"/>
</g>
<!-- CP11 -->
<g id="node17" class="node">
<title>CP11</title>
<g id="a_node17"><a xlink:href="https://www.ipcc.ch/report/ar6/wg2/chapter/chapter-11/" xlink:title="Chapter 11">
<ellipse fill="lightcoral" stroke="lightcoral" cx="1190.26" cy="-18" rx="51.86" ry="18"/>
<text text-anchor="middle" x="1190.26" y="-12.95" font-family="Times New Roman,serif" font-size="14.00">Chapter 11</text>
</a>
</g>
</g>
<!-- CP&#45;&gt;CP11 -->
<g id="edge11" class="edge">
<title>CP&#45;&gt;CP11</title>
<path fill="none" stroke="black" d="M1092.95,-74.83C1110.61,-64.7 1134.67,-50.89 1154.45,-39.55"/>
<polygon fill="black" stroke="black" points="1156.1,-42.64 1163.03,-34.62 1152.61,-36.56 1156.1,-42.64"/>
</g>
<!-- CP12 -->
<g id="node18" class="node">
<title>CP12</title>
<g id="a_node18"><a xlink:href="https://www.ipcc.ch/report/ar6/wg2/chapter/chapter-12/" xlink:title="Chapter 12">
<ellipse fill="lightcoral" stroke="lightcoral" cx="1312.26" cy="-18" rx="51.86" ry="18"/>
<text text-anchor="middle" x="1312.26" y="-12.95" font-family="Times New Roman,serif" font-size="14.00">Chapter 12</text>
</a>
</g>
</g>
<!-- CP&#45;&gt;CP12 -->
<g id="edge12" class="edge">
<title>CP&#45;&gt;CP12</title>
<path fill="none" stroke="black" d="M1103.48,-78.9C1145.26,-66.91 1215.21,-46.84 1262.51,-33.27"/>
<polygon fill="black" stroke="black" points="1263.32,-36.68 1271.96,-30.56 1261.39,-29.95 1263.32,-36.68"/>
</g>
<!-- CP13 -->
<g id="node19" class="node">
<title>CP13</title>
<g id="a_node19"><a xlink:href="https://www.ipcc.ch/report/ar6/wg2/chapter/chapter-13/" xlink:title="Chapter 13">
<ellipse fill="lightcoral" stroke="lightcoral" cx="1434.26" cy="-18" rx="51.86" ry="18"/>
<text text-anchor="middle" x="1434.26" y="-12.95" font-family="Times New Roman,serif" font-size="14.00">Chapter 13</text>
</a>
</g>
</g>
<!-- CP&#45;&gt;CP13 -->
<g id="edge13" class="edge">
<title>CP&#45;&gt;CP13</title>
<path fill="none" stroke="black" d="M1108.97,-83.25C1167.69,-74.65 1279.41,-57.17 1373.26,-36 1377.02,-35.15 1380.89,-34.22 1384.78,-33.23"/>
<polygon fill="black" stroke="black" points="1385.43,-36.68 1394.22,-30.76 1383.66,-29.91 1385.43,-36.68"/>
</g>
<!-- CP14 -->
<g id="node20" class="node">
<title>CP14</title>
<g id="a_node20"><a xlink:href="https://www.ipcc.ch/report/ar6/wg2/chapter/chapter-14/" xlink:title="Chapter 14">
<ellipse fill="lightcoral" stroke="lightcoral" cx="1556.26" cy="-18" rx="51.86" ry="18"/>
<text text-anchor="middle" x="1556.26" y="-12.95" font-family="Times New Roman,serif" font-size="14.00">Chapter 14</text>
</a>
</g>
</g>
<!-- CP&#45;&gt;CP14 -->
<g id="edge14" class="edge">
<title>CP&#45;&gt;CP14</title>
<path fill="none" stroke="black" d="M1111.02,-85.81C1188.29,-79.56 1356.09,-63.87 1495.26,-36 1499.09,-35.23 1503.04,-34.35 1506.99,-33.4"/>
<polygon fill="black" stroke="black" points="1507.78,-36.81 1516.6,-30.95 1506.05,-30.03 1507.78,-36.81"/>
</g>
<!-- CP15 -->
<g id="node21" class="node">
<title>CP15</title>
<g id="a_node21"><a xlink:href="https://www.ipcc.ch/report/ar6/wg2/chapter/chapter-15/" xlink:title="Chapter 15">
<ellipse fill="lightcoral" stroke="lightcoral" cx="1678.26" cy="-18" rx="51.86" ry="18"/>
<text text-anchor="middle" x="1678.26" y="-12.95" font-family="Times New Roman,serif" font-size="14.00">Chapter 15</text>
</a>
</g>
</g>
<!-- CP&#45;&gt;CP15 -->
<g id="edge15" class="edge">
<title>CP&#45;&gt;CP15</title>
<path fill="none" stroke="black" d="M1111.68,-87.4C1204.95,-83.39 1431.1,-70.65 1617.26,-36 1621.28,-35.25 1625.42,-34.36 1629.55,-33.39"/>
<polygon fill="black" stroke="black" points="1630.12,-36.86 1638.96,-31.02 1628.41,-30.07 1630.12,-36.86"/>
</g>
<!-- CP16 -->
<g id="node22" class="node">
<title>CP16</title>
<g id="a_node22"><a xlink:href="https://www.ipcc.ch/report/ar6/wg2/chapter/chapter-16/" xlink:title="Chapter 16">
<ellipse fill="lightcoral" stroke="lightcoral" cx="1800.26" cy="-18" rx="51.86" ry="18"/>
<text text-anchor="middle" x="1800.26" y="-12.95" font-family="Times New Roman,serif" font-size="14.00">Chapter 16</text>
</a>
</g>
</g>
<!-- CP&#45;&gt;CP16 -->
<g id="edge16" class="edge">
<title>CP&#45;&gt;CP16</title>
<path fill="none" stroke="black" d="M1112.2,-88.45C1219.91,-86.48 1505.39,-77.42 1739.26,-36 1743.28,-35.29 1747.43,-34.42 1751.57,-33.47"/>
<polygon fill="black" stroke="black" points="1752.12,-36.93 1760.98,-31.12 1750.43,-30.14 1752.12,-36.93"/>
</g>
<!-- CP17 -->
<g id="node23" class="node">
<title>CP17</title>
<g id="a_node23"><a xlink:href="https://www.ipcc.ch/report/ar6/wg2/chapter/chapter-17/" xlink:title="Chapter 17">
<ellipse fill="lightcoral" stroke="lightcoral" cx="1922.26" cy="-18" rx="51.86" ry="18"/>
<text text-anchor="middle" x="1922.26" y="-12.95" font-family="Times New Roman,serif" font-size="14.00">Chapter 17</text>
</a>
</g>
</g>
<!-- CP&#45;&gt;CP17 -->
<g id="edge17" class="edge">
<title>CP&#45;&gt;CP17</title>
<path fill="none" stroke="black" d="M1112.04,-89.21C1232.5,-89.11 1578.7,-84.29 1861.26,-36 1865.34,-35.3 1869.55,-34.44 1873.75,-33.48"/>
<polygon fill="black" stroke="black" points="1874.45,-36.91 1883.32,-31.11 1872.77,-30.12 1874.45,-36.91"/>
</g>
<!-- CP18 -->
<g id="node24" class="node">
<title>CP18</title>
<g id="a_node24"><a xlink:href="https://www.ipcc.ch/report/ar6/wg2/chapter/chapter-18/" xlink:title="Chapter 18">
<ellipse fill="lightcoral" stroke="lightcoral" cx="2044.26" cy="-18" rx="51.86" ry="18"/>
<text text-anchor="middle" x="2044.26" y="-12.95" font-family="Times New Roman,serif" font-size="14.00">Chapter 18</text>
</a>
</g>
</g>
<!-- CP&#45;&gt;CP18 -->
<g id="edge18" class="edge">
<title>CP&#45;&gt;CP18</title>
<path fill="none" stroke="black" d="M1111.99,-87.71C1270.19,-82.84 1812.36,-64.43 1983.26,-36 1987.35,-35.32 1991.56,-34.47 1995.76,-33.52"/>
<polygon fill="black" stroke="black" points="1996.45,-36.95 2005.32,-31.16 1994.78,-30.16 1996.45,-36.95"/>
</g>
<!-- CPP1 -->
<g id="node25" class="node">
<title>CPP1</title>
<g id="a_node25"><a xlink:href="https://www.ipcc.ch/report/ar6/wg2/chapter/ccp1/" xlink:title="Cross&#45;Chapter 1">
<ellipse fill="lightseagreen" stroke="lightseagreen" cx="2185.26" cy="-18" rx="71.31" ry="18"/>
<text text-anchor="middle" x="2185.26" y="-12.95" font-family="Times New Roman,serif" font-size="14.00">Cross&#45;Chapter 1</text>
</a>
</g>
</g>
<!-- CCP&#45;&gt;CPP1 -->
<g id="edge19" class="edge">
<title>CCP&#45;&gt;CPP1</title>
<path fill="none" stroke="black" d="M2529.72,-80.27C2465.38,-70.33 2358.14,-53.22 2266.26,-36 2260.66,-34.95 2254.86,-33.82 2249.05,-32.66"/>
<polygon fill="black" stroke="black" points="2249.89,-29.26 2239.4,-30.7 2248.5,-36.12 2249.89,-29.26"/>
</g>
<!-- CPP2 -->
<g id="node26" class="node">
<title>CPP2</title>
<g id="a_node26"><a xlink:href="https://www.ipcc.ch/report/ar6/wg2/chapter/ccp2/" xlink:title="Cross&#45;Chapter 2">
<ellipse fill="lightseagreen" stroke="lightseagreen" cx="2346.26" cy="-18" rx="71.31" ry="18"/>
<text text-anchor="middle" x="2346.26" y="-12.95" font-family="Times New Roman,serif" font-size="14.00">Cross&#45;Chapter 2</text>
</a>
</g>
</g>
<!-- CCP&#45;&gt;CPP2 -->
<g id="edge20" class="edge">
<title>CCP&#45;&gt;CPP2</title>
<path fill="none" stroke="black" d="M2542.77,-76.08C2503.24,-64.6 2445.25,-47.75 2402.5,-35.34"/>
<polygon fill="black" stroke="black" points="2403.74,-32.05 2393.16,-32.62 2401.79,-38.77 2403.74,-32.05"/>
</g>
<!-- CPP3 -->
<g id="node27" class="node">
<title>CPP3</title>
<g id="a_node27"><a xlink:href="https://www.ipcc.ch/report/ar6/wg2/chapter/ccp3/" xlink:title="Cross&#45;Chapter 3">
<ellipse fill="lightseagreen" stroke="lightseagreen" cx="2507.26" cy="-18" rx="71.31" ry="18"/>
<text text-anchor="middle" x="2507.26" y="-12.95" font-family="Times New Roman,serif" font-size="14.00">Cross&#45;Chapter 3</text>
</a>
</g>
</g>
<!-- CCP&#45;&gt;CPP3 -->
<g id="edge21" class="edge">
<title>CCP&#45;&gt;CPP3</title>
<path fill="none" stroke="black" d="M2568.3,-72.41C2558.31,-63.67 2545.87,-52.79 2534.83,-43.13"/>
<polygon fill="black" stroke="black" points="2537.33,-40.66 2527.5,-36.71 2532.72,-45.93 2537.33,-40.66"/>
</g>
<!-- CPP4 -->
<g id="node28" class="node">
<title>CPP4</title>
<g id="a_node28"><a xlink:href="https://www.ipcc.ch/report/ar6/wg2/chapter/ccp4/" xlink:title="Cross&#45;Chapter 4">
<ellipse fill="lightseagreen" stroke="lightseagreen" cx="2668.26" cy="-18" rx="71.31" ry="18"/>
<text text-anchor="middle" x="2668.26" y="-12.95" font-family="Times New Roman,serif" font-size="14.00">Cross&#45;Chapter 4</text>
</a>
</g>
</g>
<!-- CCP&#45;&gt;CPP4 -->
<g id="edge22" class="edge">
<title>CCP&#45;&gt;CPP4</title>
<path fill="none" stroke="black" d="M2606.45,-72.41C2616.57,-63.67 2629.16,-52.79 2640.33,-43.13"/>
<polygon fill="black" stroke="black" points="2642.5,-45.89 2647.77,-36.7 2637.92,-40.59 2642.5,-45.89"/>
</g>
<!-- CPP5 -->
<g id="node29" class="node">
<title>CPP5</title>
<g id="a_node29"><a xlink:href="https://www.ipcc.ch/report/ar6/wg2/chapter/ccp5/" xlink:title="Cross&#45;Chapter 5">
<ellipse fill="lightseagreen" stroke="lightseagreen" cx="2829.26" cy="-18" rx="71.31" ry="18"/>
<text text-anchor="middle" x="2829.26" y="-12.95" font-family="Times New Roman,serif" font-size="14.00">Cross&#45;Chapter 5</text>
</a>
</g>
</g>
<!-- CCP&#45;&gt;CPP5 -->
<g id="edge23" class="edge">
<title>CCP&#45;&gt;CPP5</title>
<path fill="none" stroke="black" d="M2631.64,-76.16C2671.31,-64.69 2729.64,-47.82 2772.65,-35.38"/>
<polygon fill="black" stroke="black" points="2773.42,-38.79 2782.05,-32.65 2771.47,-32.07 2773.42,-38.79"/>
</g>
<!-- CPP6 -->
<g id="node30" class="node">
<title>CPP6</title>
<g id="a_node30"><a xlink:href="https://www.ipcc.ch/report/ar6/wg2/chapter/ccp6/" xlink:title="Cross&#45;Chapter 6">
<ellipse fill="lightseagreen" stroke="lightseagreen" cx="2990.26" cy="-18" rx="71.31" ry="18"/>
<text text-anchor="middle" x="2990.26" y="-12.95" font-family="Times New Roman,serif" font-size="14.00">Cross&#45;Chapter 6</text>
</a>
</g>
</g>
<!-- CCP&#45;&gt;CPP6 -->
<g id="edge24" class="edge">
<title>CCP&#45;&gt;CPP6</title>
<path fill="none" stroke="black" d="M2644.68,-80.32C2709.19,-70.4 2816.95,-53.27 2909.26,-36 2914.85,-34.95 2920.65,-33.82 2926.47,-32.66"/>
<polygon fill="black" stroke="black" points="2927.02,-36.12 2936.12,-30.7 2925.62,-29.26 2927.02,-36.12"/>
</g>
<!-- CPP7 -->
<g id="node31" class="node">
<title>CPP7</title>
<g id="a_node31"><a xlink:href="https://www.ipcc.ch/report/ar6/wg2/chapter/ccp7/" xlink:title="Cross&#45;Chapter 7">
<ellipse fill="lightseagreen" stroke="lightseagreen" cx="3151.26" cy="-18" rx="71.31" ry="18"/>
<text text-anchor="middle" x="3151.26" y="-12.95" font-family="Times New Roman,serif" font-size="14.00">Cross&#45;Chapter 7</text>
</a>
</g>
</g>
<!-- CCP&#45;&gt;CPP7 -->
<g id="edge25" class="edge">
<title>CCP&#45;&gt;CPP7</title>
<path fill="none" stroke="black" d="M2651.2,-83.98C2743.92,-76.26 2920.93,-59.8 3070.26,-36 3076.2,-35.05 3082.36,-33.96 3088.52,-32.8"/>
<polygon fill="black" stroke="black" points="3088.92,-36.29 3098.06,-30.93 3087.57,-29.42 3088.92,-36.29"/>
</g>
</g>
</svg>
